<svg xmlns="http://www.w3.org/2000/svg" width="21.937" height="14.774" viewBox="0 0 21.937 14.774"><g transform="translate(22.402 56.12) rotate(180)"><g transform="translate(0.464 41.346)"><path d="M18.654,48.043,12.24,41.63a.975.975,0,0,0-1.375,0l-.582.582A.965.965,0,0,0,10,42.9a.984.984,0,0,0,.284.7l3.741,3.75H-2.041A.948.948,0,0,0-3,48.3v.823a.985.985,0,0,0,.959,1H14.067l-3.784,3.771a.963.963,0,0,0,0,1.365l.582.581a.975.975,0,0,0,1.375,0l6.413-6.413a.98.98,0,0,0,0-1.38Z" transform="translate(3 -41.346)" fill="#3f4444"/></g></g></svg>