<svg xmlns="http://www.w3.org/2000/svg" width="140" height="140" viewBox="0 0 140 140"><circle cx="70" cy="70" r="70" fill="#fefefe"/><g transform="translate(7.472 7.497)"><path d="M327.964,274.37a1.514,1.514,0,1,1-1.343,1.668A1.514,1.514,0,0,1,327.964,274.37Zm7.379-.46A1.514,1.514,0,1,1,334,275.578,1.514,1.514,0,0,1,335.343,273.91Zm7.216.439a1.514,1.514,0,1,1-1.343,1.668A1.514,1.514,0,0,1,342.559,274.349Zm7.116,1.27a1.514,1.514,0,1,1-1.343,1.668A1.514,1.514,0,0,1,349.676,275.619Zm6.917,2.1a1.514,1.514,0,1,1-1.343,1.668A1.514,1.514,0,0,1,356.593,277.717Zm6.61,2.927a1.514,1.514,0,1,1-1.343,1.668A1.514,1.514,0,0,1,363.2,280.644Zm6.23,3.666a1.514,1.514,0,1,1-1.343,1.668A1.514,1.514,0,0,1,369.434,284.31Zm5.734,4.4a1.514,1.514,0,1,1-1.343,1.668A1.514,1.514,0,0,1,375.168,288.712Zm5.2,5.026a1.514,1.514,0,1,1-1.343,1.668A1.514,1.514,0,0,1,380.364,293.737Zm4.551,5.616a1.514,1.514,0,1,1-1.343,1.668A1.514,1.514,0,0,1,384.916,299.354Zm3.874,6.1a1.514,1.514,0,1,1-1.343,1.668A1.514,1.514,0,0,1,388.789,305.458Zm3.111,6.525a1.514,1.514,0,1,1-1.343,1.668A1.514,1.514,0,0,1,391.9,311.983Zm2.317,6.848a1.514,1.514,0,1,1-1.343,1.668A1.514,1.514,0,0,1,394.218,318.83Zm1.5,7.072a1.514,1.514,0,1,1-1.343,1.668A1.514,1.514,0,0,1,395.714,325.9Zm.625,7.2A1.514,1.514,0,1,1,395,334.772,1.514,1.514,0,0,1,396.339,333.1Zm-.2,7.225A1.514,1.514,0,1,1,394.794,342,1.514,1.514,0,0,1,396.137,340.33Zm-1.043,7.154a1.514,1.514,0,1,1-1.343,1.668A1.514,1.514,0,0,1,395.094,347.484Zm-1.909,6.972a1.514,1.514,0,1,1-1.343,1.668A1.514,1.514,0,0,1,393.185,354.456Zm-2.7,6.705a1.514,1.514,0,1,1-1.343,1.668A1.514,1.514,0,0,1,390.483,361.161Zm-3.5,6.326a1.514,1.514,0,1,1-1.343,1.668A1.514,1.514,0,0,1,386.984,367.487Zm-4.209,5.877a1.514,1.514,0,1,1-1.343,1.668A1.514,1.514,0,0,1,382.776,373.364ZM377.9,378.7a1.514,1.514,0,1,1-1.343,1.668A1.514,1.514,0,0,1,377.9,378.7Zm-5.468,4.728a1.514,1.514,0,1,1-1.343,1.668A1.514,1.514,0,0,1,372.429,383.427Zm-5.987,4.051a1.514,1.514,0,1,1-1.343,1.668A1.514,1.514,0,0,1,366.442,387.478Zm-6.427,3.31a1.514,1.514,0,1,1-1.343,1.668A1.514,1.514,0,0,1,360.015,390.788Zm-6.77,2.535a1.514,1.514,0,1,1-1.343,1.668A1.514,1.514,0,0,1,353.246,393.323Zm-7.029,1.689a1.514,1.514,0,1,1-1.343,1.668A1.514,1.514,0,0,1,346.217,395.012Zm-7.177.863a1.514,1.514,0,1,1-1.343,1.668A1.514,1.514,0,0,1,339.04,395.875Zm-7.228.013a1.514,1.514,0,1,1-1.343,1.668A1.514,1.514,0,0,1,331.811,395.888Zm-7.179-.847a1.514,1.514,0,1,1-1.343,1.668A1.514,1.514,0,0,1,324.632,395.041Zm-7.032-1.673a1.514,1.514,0,1,1-1.343,1.668A1.514,1.514,0,0,1,317.6,393.368Zm-6.778-2.513a1.514,1.514,0,1,1-1.343,1.668A1.514,1.514,0,0,1,310.822,390.855Zm-6.434-3.3a1.514,1.514,0,1,1-1.343,1.668A1.514,1.514,0,0,1,304.388,387.56Zm-6-4.031a1.514,1.514,0,1,1-1.343,1.668A1.514,1.514,0,0,1,298.387,383.529Zm-5.479-4.717a1.514,1.514,0,1,1-1.343,1.668A1.514,1.514,0,0,1,292.909,378.813Zm-4.9-5.319a1.514,1.514,0,1,1-1.343,1.668A1.514,1.514,0,0,1,288.013,373.494Zm-4.221-5.868a1.514,1.514,0,1,1-1.343,1.668A1.514,1.514,0,0,1,283.792,367.625Zm-3.52-6.315a1.514,1.514,0,1,1-1.343,1.668A1.514,1.514,0,0,1,280.272,361.311Zm-2.717-6.7a1.514,1.514,0,1,1-1.343,1.668A1.514,1.514,0,0,1,277.555,354.612Zm-1.924-6.968a1.514,1.514,0,1,1-1.343,1.668A1.514,1.514,0,0,1,275.631,347.644Zm-1.068-7.149a1.514,1.514,0,1,1-1.343,1.668A1.514,1.514,0,0,1,274.563,340.494Zm-.22-7.226A1.514,1.514,0,1,1,273,334.936,1.514,1.514,0,0,1,274.343,333.269Zm.609-7.2a1.514,1.514,0,1,1-1.343,1.668A1.514,1.514,0,0,1,274.952,326.065Zm1.472-7.077a1.514,1.514,0,1,1-1.343,1.668A1.514,1.514,0,0,1,276.424,318.988Zm2.3-6.852a1.514,1.514,0,1,1-1.343,1.668A1.514,1.514,0,0,1,278.726,312.135Zm3.09-6.535a1.514,1.514,0,1,1-1.343,1.668A1.514,1.514,0,0,1,281.816,305.6Zm3.86-6.112a1.514,1.514,0,1,1-1.343,1.668A1.514,1.514,0,0,1,285.676,299.488Zm4.533-5.632a1.514,1.514,0,1,1-1.343,1.668A1.514,1.514,0,0,1,290.208,293.856Zm5.186-5.037a1.514,1.514,0,1,1-1.343,1.668A1.514,1.514,0,0,1,295.394,288.82Zm5.724-4.416a1.514,1.514,0,1,1-1.343,1.668A1.514,1.514,0,0,1,301.118,284.4Zm6.22-3.685a1.514,1.514,0,1,1-1.343,1.668A1.514,1.514,0,0,1,307.337,280.719Zm6.6-2.942a1.514,1.514,0,1,1-1.343,1.668A1.514,1.514,0,0,1,313.941,277.777Zm6.91-2.122a1.514,1.514,0,1,1-1.343,1.668A1.514,1.514,0,0,1,320.851,275.656Z" transform="translate(-272.991 -273.901)" fill="#4d5252" fill-rule="evenodd"/><path d="M1048.57,1050c1.219,0,3.094-.878,2.579-1.91-.354-.709-1.635.232-2.579.232s-2.226-.941-2.579-.232C1045.475,1049.12,1047.35,1050,1048.57,1050Zm13.02,43.4.008-.009,2.712.009a.462.462,0,0,0,0-.923h-2.254v-1.531h1.938a.462.462,0,0,0,0-.923h-1.938v-1.523h2.254a.462.462,0,0,0,0-.923h-2.719a.452.452,0,0,0-.458.457v4.908a.456.456,0,0,0,.458.457Zm-4.932,0,.008-.009,2.712.009a.462.462,0,0,0,0-.923h-2.254v-1.531h1.938a.462.462,0,0,0,0-.923h-1.938v-1.523h2.254a.462.462,0,0,0,0-.923h-2.72a.452.452,0,0,0-.458.457v4.908a.456.456,0,0,0,.458.457Zm-5.032,0a.463.463,0,0,0,.466-.458v-2h1.938a.462.462,0,0,0,0-.923h-1.938V1088.5h2.254a.462.462,0,0,0,0-.923h-2.72a.457.457,0,0,0-.457.458v4.908A.457.457,0,0,0,1051.625,1093.4Zm-5.032,0a.463.463,0,0,0,.466-.458v-2H1049a.462.462,0,0,0,0-.923h-1.938V1088.5h2.254a.462.462,0,0,0,0-.923h-2.72a.457.457,0,0,0-.457.458v4.908A.457.457,0,0,0,1046.593,1093.4Zm-4.924-5.99a3.018,3.018,0,0,0-2.038,5.1c2.6,2.753,6.684-1.308,4.026-4.209a2.693,2.693,0,0,0-1.988-.89Zm1.314,4.442c-1.784,1.913-4.436-1.024-2.662-2.9C1042.118,1087.041,1044.758,1089.986,1042.983,1091.848Zm-7.369,1.547c.958,0,2.537-.627,2-1.314-.449-.579-.849.366-2,.366a2.047,2.047,0,1,1,0-4.093c1.187,0,1.553.961,2,.366.53-.7-1.069-1.317-2-1.314a3,3,0,1,0,0,5.99Zm14.575-49.54c1.559-.034,2.109-2.8.57-2.768C1049.2,1041.121,1048.649,1043.888,1050.189,1043.855Zm-3.242,0c-1.558-.034-2.109-2.8-.57-2.768C1047.936,1041.121,1048.486,1043.888,1046.947,1043.855Zm-1.022-13.151a1.938,1.938,0,0,1,0-3.875A1.938,1.938,0,0,1,1045.925,1030.7Zm5.518,0a1.938,1.938,0,0,1,0-3.875A1.938,1.938,0,0,1,1051.442,1030.7Zm4.76-3.707c6.023-.49,19.025-1.431,20.318-5.959.72-2.519,1.78-7.167,1.118-9.443-.972.229-2.086,7.28-4.11,8.943a1.582,1.582,0,0,1-2.386-.19c-1.544-2,0-9.834-1.13-9.962-.7-.079-1.407,6.3-1.89,8.091-1.183,4.389-4.031,4.42-4.587.654-.188-1.278-.315-6.175-.959-3.814-.89,3.261.336,7.034-2.573,8.646a11.324,11.324,0,0,1-4.709.9c-.715.04-1.143-.831-1.739-1.629a.926.926,0,0,1,.311-1.367,4.723,4.723,0,0,0,1.688-6.225c-1.192.617-3.459,3.523-3.34,4.962a.931.931,0,0,1-1.4.876,7.448,7.448,0,0,0-4.331.026.93.93,0,0,1-1.342-.9h0c.12-1.438-2.148-4.345-3.34-4.962a4.717,4.717,0,0,0,1.7,6.234c1.192.658-.118,1.911-.644,2.614a.933.933,0,0,1-.8.373c-3.809-.21-6.5-.559-6.758-4.807-.09-1.465-.373-5.484-.848-5.355-.788.213.24,7.439-2.717,7.144-2.192-.219-2.78-4.5-3.1-6.5-.39-2.41-.808-5.014-1.3-4.955-1.11.133.417,7.97-1.122,9.961a1.581,1.581,0,0,1-2.386.19c-2.032-1.67-3.238-9.043-4.142-8.948l-.178,2.229a34.581,34.581,0,0,0,1.329,7.219c.484,1.693,2.428,2.9,5.68,3.827A81.78,81.78,0,0,0,1041.15,1027a.93.93,0,0,1,.86.924c0,2.561,3.082,3.446.929,4.955-7.344,5.149-1.747,19.1,5.738,19.1s13.081-13.952,5.737-19.1c-2.155-1.511.54-1.763.935-5.063a.931.931,0,0,1,.854-.815Zm15.149-.35a80.169,80.169,0,0,1-14.274,2.137,6.7,6.7,0,0,1-1.289,2.8c8.408,6.368,2.051,22.248-7.113,22.248-9.1,0-15.437-15.67-7.281-22.118.475-.376-.824-.7-1.185-2.934a79.879,79.879,0,0,1-14.21-2.131c-3.9-1.113-6.279-2.714-6.964-5.109-.528-1.849-3.139-11.378.432-11.788,3.185-.366,3.584,7.192,5.388,9.21.831-2.494-1.151-9.972,2.271-10.414,3.573-.461,2.849,8.74,4.644,11.226.9-2.581-.4-6.155,2.192-6.858,3.021-.819,3.006,3.925,3.2,7.029.166,2.7,1.507,2.848,4.5,3.039l.056-.075c-3.708-2.923-2.4-9.381.063-9.176,1.888.157,4.525,3.686,5.075,5.738a10.343,10.343,0,0,1,3.638,0c.609-2.275,4.778-8.149,6.746-4.629a6.676,6.676,0,0,1-1.608,8.067l.056.075c3-.191,4.337-.34,4.5-3.039.192-3.1.177-7.848,3.2-7.029,2.572.7,1.342,4.437,2.192,6.859,1.805-2.5,1.045-11.637,4.644-11.226,3.4.388,1.453,7.962,2.271,10.413,1.8-2.02,2.2-9.576,5.388-9.21,3.571.411.961,9.938.433,11.788-.684,2.395-3.062,4-6.964,5.109Zm-19.912.905c.713-.5,1.315,1.033.287,1.033A.556.556,0,0,1,1051.439,1027.553Zm-5.08-.079c.671-.077.791,1.112,0,1.112A.556.556,0,0,1,1046.359,1027.474Zm-2.287,36.745c-1.262.943.573,2.446,3.167,1.021A2.053,2.053,0,0,0,1044.072,1064.219Zm-36.235,10.988a1.643,1.643,0,0,1,0-3.286A1.643,1.643,0,0,1,1007.837,1075.207Zm81.646-20.742a1.643,1.643,0,0,1,0-3.286A1.643,1.643,0,0,1,1089.483,1054.465Zm-34.782,12.91c2.01,3.708,4.969-1.583,5.537-4.43-1.885.856-4.24.921-5.4-.866a6.639,6.639,0,0,0-.139,5.3Zm5.639-6.589c-.353-2.275-2.627-2.455-4.208-.775C1056.251,1062.492,1058.849,1061.748,1060.34,1060.786Zm-2.509,9.32c-3.418,1.853-6.024-2.205-5.357-6.411-.829.688-1.865,1.5-3.221,2.445.207,5.3-4.95,12.223-8.4,8.2-1.6,4.224-6.879,4.529-7.344-3.352l-.087-4.2c-.067-1.837-.258-3.4-1.043-3.37-2.63.1-1.924,11.923-6.917,11.517-4.476-.364-2.774-14.934-4.729-18.035-.109-.173-.264-.22-.483-.081-4.12,2.6-6.664,29.841-6.668,29.924a.925.925,0,0,1-1.847-.1c0-.086,2.594-28.272,7.53-31.388,6.22-3.925,3.518,17.6,6.342,17.833,2.862.232,2.142-11.35,6.707-11.517,5.169-.189,1.27,11.484,4.535,13.674,1.234.828,2.884-1.472,2.591-4.128-.495-4.494,2.659-10.045,6.926-8.994a3.48,3.48,0,0,1,2.472,2.039l4.924-4.045c.066-.111.134-.22.2-.327,2.608-3.967,6.883-3.27,7.96-.328a14.859,14.859,0,0,0,3.6-7.429c.689-3.772,4.508-4.416,6.154-2.022a6.16,6.16,0,0,1,.926,3.172.925.925,0,0,1-1.847.1c-.192-3.415-2.132-3.169-2.873-2.227-1.8,2.3.949,8.023,2.318,11.409a27.355,27.355,0,0,1,6.211-4.082c-1.228-7.777,3.93-11.134,6.839-9.319a3.267,3.267,0,0,1,1.394,3.364c-.4,3.277-3.127,5.219-6.121,6.906,1.244,3.974,4.963,3.6,7.262.951a.924.924,0,0,1,1.4,1.21c-3.228,3.722-8.507,3.724-10.307-1.261a22.6,22.6,0,0,0-5.943,4.089,41.553,41.553,0,0,1,2.2,7.2c1.043,6.152-5.853,7.186-7.929,3.083-1.631-3.22.741-7.5,3.579-10.7A76.952,76.952,0,0,1,1066,1056.6a13.885,13.885,0,0,1-3.763,5.087c-.076,2.935-1.9,7.061-4.41,8.422Zm-10.471-2.879c-1.943.8-4.105.569-5.132-.974-.916,1.671-1.462,4.325-.512,6.077C1043.771,1076.121,1046.982,1070.469,1047.36,1067.227Zm22.624-.141q-.205-.586-.434-1.2c-6.313,7.859-1.087,10.383.93,8.964,1.868-1.314.35-5.353-.5-7.763Zm8.176-9.666c2.357-1.381,4.378-2.952,4.65-5.2C1083.213,1048.9,1077.423,1050.024,1078.16,1057.421Z" transform="translate(-986.146 -988.422)" fill="#4d5252" fill-rule="evenodd"/></g></svg>