<svg xmlns="http://www.w3.org/2000/svg" width="35.771" height="37.246" viewBox="0 0 35.771 37.246"><path d="M159.018,30.9h-3.154v-.621A3.106,3.106,0,0,0,154,27.431v-4.6a.621.621,0,0,0-.621-.621h-1.653l2.2-3.952a.621.621,0,0,0-.289-.868l-.206-.092h0l-2.777-1.242a.621.621,0,0,0-.8.265l-3.271,5.888h-8.1a.621.621,0,0,0-.621.621v4.605A3.108,3.108,0,0,0,136,30.277V41.45h1.242v-.209a2.174,2.174,0,0,0,3.1-1.964V36.795a.931.931,0,1,1,1.862,0v4.966a2.173,2.173,0,0,0,4.345,0V34.932a.931.931,0,1,1,1.862,0v3.1a2.173,2.173,0,1,0,4.345,0V36.795a.931.931,0,0,1,1.862,0V50.141A1.864,1.864,0,0,1,152.761,52H142.208v1.242h10.553a3.107,3.107,0,0,0,3.1-3.1V49.52h3.154a4.3,4.3,0,0,0,4.3-4.3V35.193a4.3,4.3,0,0,0-4.3-4.3Zm-6.258-7.449V24.69h-1.242v1.242h1.242v1.242H148.97l2.069-3.725Zm-4.067-2.483H151l-.69,1.242H148Zm1.379-2.483h2.3l-.69,1.242h-2.3Zm-1.144,6.208h-2.3l.69-1.242h2.3Zm-2.994,1.242h2.3l-.69,1.242h-2.3Zm-6.831,0h4.345V24.69H139.1V23.448h6.79l-2.069,3.725H139.1Zm14.588,8.691a2.173,2.173,0,0,0-2.173,2.173v1.242a.931.931,0,1,1-1.862,0v-3.1a2.173,2.173,0,0,0-4.345,0v6.828a.931.931,0,1,1-1.862,0V36.795a2.173,2.173,0,0,0-4.345,0v2.483a.931.931,0,1,1-1.862,0v-9a1.864,1.864,0,0,1,1.862-1.862h13.657a1.862,1.862,0,0,1,1.862,1.862v4.555A2.16,2.16,0,0,0,153.692,34.622Zm2.173.621h3.1v9.932h-3.1Zm6.208,9.982a3.057,3.057,0,0,1-3.054,3.054h-3.154V46.417h3.1a1.243,1.243,0,0,0,1.242-1.242V35.243A1.243,1.243,0,0,0,158.968,34h-3.1V32.139h3.154a3.057,3.057,0,0,1,3.054,3.054Z" transform="translate(-127.542 -15.999)" fill="#3ccfbb"/><path d="M38.308,339.386a4.547,4.547,0,0,0-1.39-1.227l-.2-.115a4.579,4.579,0,0,0-5.3.545l.311-1.866-1.225-.2-.48,2.882a4.888,4.888,0,0,1-1.39-3.4H27.388a6.138,6.138,0,0,0,1.953,4.471L27,342.344l.776.969,1.343-1.074a4.575,4.575,0,0,0,4.286,6.177h3.7a3.99,3.99,0,0,0,3.192-6.383Zm1.251,6.268a2.733,2.733,0,0,1-2.458,1.519H33.4a3.334,3.334,0,0,1-2.894-4.988l.111-.194,1.178,2.356,1.11-.555L31.5,340.966h2.72v-1.242H32.024a3.311,3.311,0,0,1,1.545-.925,3.35,3.35,0,0,1,.882-.119,3.315,3.315,0,0,1,1.649.441l.2.115a3.313,3.313,0,0,1,1.013.894l1.984,2.646A2.733,2.733,0,0,1,39.558,345.655Z" transform="translate(-27 -311.169)" fill="#3ccfbb"/><rect width="1" height="2" transform="translate(7.771 29.245)" fill="#3ccfbb"/><rect width="1" height="1" transform="translate(9.771 32.245)" fill="#3ccfbb"/><rect width="1" height="1" transform="translate(6.771 33.245)" fill="#3ccfbb"/></svg>