<svg xmlns="http://www.w3.org/2000/svg" width="35.579" height="35.579" viewBox="0 0 35.579 35.579"><path d="M201.979,49.353a1.155,1.155,0,0,0-1.472-.7l-1.95.688a1.154,1.154,0,0,0-.706,1.468l0,0a1.154,1.154,0,0,0,1.472.7l1.95-.688a1.155,1.155,0,0,0,.706-1.468Zm-1,.627-1.95.688a.258.258,0,0,1-.328-.155v0a.258.258,0,0,1,.157-.329l1.95-.688a.258.258,0,0,1,.328.155v0a.258.258,0,0,1-.157.329Z" transform="translate(-184.345 -46.285)" fill="#3ccfbb"/><path d="M89.793,104.451a1.154,1.154,0,0,0-1.406-.823l-2,.521a1.154,1.154,0,0,0-.826,1.407v0a1.153,1.153,0,0,0,1.406.822l2-.521a1.155,1.155,0,0,0,.826-1.407v0Zm-1.051.543-2,.521a.257.257,0,0,1-.314-.184v0a.258.258,0,0,1,.185-.312l2-.521a.257.257,0,0,1,.314.184v0A.258.258,0,0,1,88.742,104.994Z" transform="translate(-80.464 -97.184)" fill="#3ccfbb"/><path d="M375.771,127.9l0,0a1.154,1.154,0,0,0,.122,1.624l1.565,1.351a1.145,1.145,0,0,0,.752.28c.029,0,.057,0,.086,0a1.146,1.146,0,0,0,.785-.392l0-.005a1.155,1.155,0,0,0-.12-1.627l-1.565-1.351A1.155,1.155,0,0,0,375.771,127.9Zm2.636,2.271,0,0a.258.258,0,0,1-.363.027l-1.565-1.351a.257.257,0,0,1-.027-.363l0,0a.258.258,0,0,1,.362-.025l1.565,1.351A.258.258,0,0,1,378.407,130.172Z" transform="translate(-348.776 -119.309)" fill="#3ccfbb"/><path d="M266.883,113.022a1.154,1.154,0,0,0-1.26-1.032l-2.058.2a1.154,1.154,0,0,0-1.037,1.253.066.066,0,0,0,0,.008,1.155,1.155,0,0,0,1.147,1.042q.056,0,.113-.006l2.058-.2a1.155,1.155,0,0,0,1.036-1.26S266.883,113.024,266.883,113.022Zm-1.123.373-2.058.2a.258.258,0,0,1-.281-.228v0a.258.258,0,0,1,.231-.281l2.058-.2a.258.258,0,0,1,.281.232v0a.258.258,0,0,1-.232.279Z" transform="translate(-244.246 -104.951)" fill="#3ccfbb"/><path d="M161.392,122.11l-.005,0a1.155,1.155,0,0,0-1.6.3l-1.172,1.7a1.154,1.154,0,0,0,.291,1.6l.006,0a1.155,1.155,0,0,0,1.6-.3l1.173-1.7a1.154,1.154,0,0,0-.291-1.6Zm-.447,1.093-1.173,1.7a.258.258,0,0,1-.356.068l0,0a.258.258,0,0,1-.066-.359l1.172-1.7a.258.258,0,0,1,.356-.068l0,0a.258.258,0,0,1,.066.359Z" transform="translate(-147.906 -114.129)" fill="#3ccfbb"/><path d="M150.033,59.729a1.183,1.183,0,1,0-1.183,1.183A1.183,1.183,0,0,0,150.033,59.729Zm-1.469,0a.286.286,0,1,1,.286.286A.286.286,0,0,1,148.564,59.729Z" transform="translate(-137.969 -55.504)" fill="#3ccfbb"/><path d="M340.3,60.7a1.431,1.431,0,1,0-1.431,1.432A1.431,1.431,0,0,0,340.3,60.7Zm-1.967,0a.535.535,0,1,1,.535.535A.535.535,0,0,1,338.33,60.7Z" transform="translate(-313.562 -56.172)" fill="#3ccfbb"/><path d="M347.589,176.744a1.381,1.381,0,1,0,1.381,1.381A1.381,1.381,0,0,0,347.589,176.744Zm0,1.866a.485.485,0,1,1,.485-.485A.485.485,0,0,1,347.589,178.61Z" transform="translate(-321.681 -164.874)" fill="#3ccfbb"/><path d="M45.642,183.5a1.23,1.23,0,1,0,1.23,1.23,1.23,1.23,0,0,0-1.23-1.23Zm0,1.563a.333.333,0,1,1,.333-.333.333.333,0,0,1-.333.333Z" transform="translate(-42.425 -171.125)" fill="#3ccfbb"/><path d="M35.6,17.811a17.789,17.789,0,1,0,12.579,5.21A17.789,17.789,0,0,0,35.6,17.811ZM47.541,47.546A16.893,16.893,0,0,1,18.7,35.6c0-.332.011-.661.03-.99a.923.923,0,0,1,1.288.848v2.259a1.81,1.81,0,1,0,3.619,0V31.743a1.065,1.065,0,1,1,2.129,0v2.8a1.963,1.963,0,0,0,2.653,1.836,7.216,7.216,0,0,0,14.154,1.056A1.1,1.1,0,0,1,43.9,38.513v5.333a1.961,1.961,0,0,0,3.922,0V33.71a.989.989,0,1,1,1.978,0V37.1a1.965,1.965,0,0,0,2.338,1.935A16.775,16.775,0,0,1,47.541,47.546ZM29.276,35.6a6.32,6.32,0,1,1,6.32,6.32,6.32,6.32,0,0,1-6.32-6.32Zm23.04,2.43a1.061,1.061,0,0,1-.543.148A1.076,1.076,0,0,1,50.7,37.1V33.71a1.885,1.885,0,0,0-3.77,0V43.845a1.065,1.065,0,0,1-2.129,0V38.513a2,2,0,0,0-2-2h-.045A7.216,7.216,0,1,0,28.384,35.38a1.054,1.054,0,0,1-.654.226,1.066,1.066,0,0,1-1.065-1.065v-2.8a1.961,1.961,0,0,0-3.922,0v5.975a.913.913,0,1,1-1.827,0V35.459a1.821,1.821,0,0,0-2.1-1.8A16.893,16.893,0,0,1,52.489,35.6a17.142,17.142,0,0,1-.173,2.429Z" transform="translate(-17.806 -17.811)" fill="#3ccfbb"/><path d="M253.384,447.207a14.638,14.638,0,0,1-2.936.3.448.448,0,0,0,0,.9,15.547,15.547,0,0,0,3.119-.316.448.448,0,0,0-.183-.877Z" transform="translate(-232.658 -415.129)" fill="#3ccfbb"/><path d="M119.692,399.4a14.544,14.544,0,0,1-8.052-3.919.448.448,0,0,0-.62.647,15.44,15.44,0,0,0,8.548,4.159.455.455,0,0,0,.063,0,.448.448,0,0,0,.062-.892Z" transform="translate(-103.938 -367.168)" fill="#3ccfbb"/><path d="M85.624,365.111a.448.448,0,1,0-.735.513c.168.24.344.479.525.708a.448.448,0,1,0,.7-.554C85.948,365.562,85.782,365.337,85.624,365.111Z" transform="translate(-79.804 -338.995)" fill="#3ccfbb"/></svg>