<svg xmlns="http://www.w3.org/2000/svg" width="25.36" height="43.615" viewBox="0 0 25.36 43.615"><path d="M25.855.559A.643.643,0,0,0,25.138,0L19.176.766a.641.641,0,0,0-.5.371L16.836,5.176a2.861,2.861,0,0,0-2.154.472,2.823,2.823,0,0,0-1.158-.317c0-.028,0-.057,0-.085A2.868,2.868,0,0,0,8.108,3.933,2.868,2.868,0,0,0,4.576,6.262,2.878,2.878,0,0,0,2.963,7.8a2.869,2.869,0,0,0-.274,5.627c0,.029,0,.059.008.09.164,1.895.542,5.666,1.241,9.8l.014.082q.022.134.046.268l.027.154.039.224c.014.078.028.156.042.234l.028.155q.075.419.156.84c0,.011,0,.021.006.032q.038.2.078.4l.007.037a53.74,53.74,0,0,0,2.252,8.373l.013.034q.06.158.121.314l.028.072c.037.093.074.185.111.276.011.026.021.052.032.078q.058.143.118.283l.024.056q.142.332.291.649l.044.092c.034.072.069.143.1.214l.055.11q.048.1.1.192l.057.11c.034.066.069.13.1.195l.051.094q.077.141.156.278l.15.434a1.58,1.58,0,0,0-.6,1.24v.236a1.576,1.576,0,0,0,.395,1.043,1.365,1.365,0,0,1-.251.137l-2.72,1.122a1.344,1.344,0,0,0-.847,1.237,1.015,1.015,0,0,0,1.028,1H16.9a1.015,1.015,0,0,0,1.028-1,1.344,1.344,0,0,0-.847-1.237h0L14.36,40.255a1.357,1.357,0,0,1-.252-.137,1.575,1.575,0,0,0,.395-1.043v-.236a1.579,1.579,0,0,0-.6-1.24l.15-.434a21,21,0,0,0,1.394-3.018.642.642,0,0,0-1.2-.454,19.579,19.579,0,0,1-1.332,2.876v0l0,0-.009.018-.019.036c-.009.019-.017.039-.024.059l-.2.568H9.426l-.2-.568a.667.667,0,0,0-.052-.113q-.075-.129-.149-.263l-.049-.09-.1-.183-.057-.109-.088-.172-.059-.119c-.028-.057-.056-.114-.084-.172l-.059-.123c-.028-.059-.056-.119-.083-.18-.019-.04-.037-.08-.056-.121-.035-.077-.069-.155-.1-.233s-.057-.132-.086-.2l-.071-.168-.072-.175-.056-.137-.076-.192-.048-.123q-.04-.1-.08-.209l-.038-.1-.087-.235c-.005-.015-.01-.03-.016-.045C5.822,28.116,4.794,21.059,4.28,16.468H17.806A93.522,93.522,0,0,1,15.167,30.9a.642.642,0,0,0,1.233.356,95.048,95.048,0,0,0,2.978-17.581c.009-.108.018-.21.026-.3,0-.044,0-.089,0-.132a2.868,2.868,0,0,0-.214-5.286,2.865,2.865,0,0,0-1.179-2.275l1.678-3.688L25.3,1.277a.642.642,0,0,0,.555-.718ZM8.868,38.839a.3.3,0,0,1,.239-.294.3.3,0,0,1,.061-.006H12.92a.3.3,0,0,1,.061.006.3.3,0,0,1,.239.294v.236a.3.3,0,0,1-.227.29l-.027.005a.3.3,0,0,1-.046,0H9.168a.3.3,0,0,1-.046,0L9.1,39.365a.3.3,0,0,1-.227-.29Zm-.65,2.6a2.6,2.6,0,0,0,1.045-.783h3.562a2.6,2.6,0,0,0,1.046.783l2.157.889H6.061Zm4.066-26.257H4.143c-.069-.675-.121-1.244-.159-1.67h9.059ZM3.408,12.231H3.369a1.586,1.586,0,1,1,0-3.172l.045,0a.644.644,0,0,0,.642-.49A1.588,1.588,0,0,1,5.3,7.385a.641.641,0,0,0,.522-.643V6.715A1.585,1.585,0,0,1,8.172,5.326.642.642,0,0,0,9.109,4.9a1.586,1.586,0,0,1,3.134.343,1.57,1.57,0,0,1-.11.579.642.642,0,0,0,.78.85,1.579,1.579,0,0,1,1.427.272.641.641,0,0,0,.855-.056,1.573,1.573,0,0,1,1.079-.475l-2.645,5.815Zm14.684,1.417c-.037.412-.086.931-.147,1.537H13.694l.76-1.67H18.1l-.012.134Zm.327-4.572a1.585,1.585,0,0,1,.1,3.121,1.552,1.552,0,0,1-.156.025h0a1.611,1.611,0,0,1-.165.009H15.037L17.464,6.9A1.58,1.58,0,0,1,17.912,8a1.613,1.613,0,0,1-.031.315.642.642,0,0,0,.538.762Zm0,0" transform="translate(-0.5 0.001)" fill="#3ccfbb"/><path d="M116.742,219.739v8.377a.642.642,0,0,0,1.283,0v-8.377a.642.642,0,0,0-1.283,0Zm0,0" transform="translate(-106.84 -200.434)" fill="#3ccfbb"/><path d="M154.166,219.1a.641.641,0,0,0-.642.642,53.416,53.416,0,0,1-.918,8.264.641.641,0,0,0,.519.744.632.632,0,0,0,.114.01.642.642,0,0,0,.631-.529,53.242,53.242,0,0,0,.938-8.49.641.641,0,0,0-.642-.642Zm0,0" transform="translate(-139.64 -200.434)" fill="#3ccfbb"/><path d="M74.377,275.907a.642.642,0,1,0,1.262-.229c-.253-1.394-.458-2.723-.611-3.952a.642.642,0,0,0-1.273.158C73.911,273.137,74.121,274.49,74.377,275.907Zm0,0" transform="translate(-67.511 -248.065)" fill="#3ccfbb"/><path d="M70.709,221.843a.641.641,0,0,0,.6-.676c-.028-.507-.043-.988-.043-1.428a.642.642,0,0,0-1.283,0c0,.464.015.968.045,1.5a.641.641,0,0,0,.64.606Zm0,0" transform="translate(-64.069 -200.433)" fill="#3ccfbb"/></svg>