<svg xmlns="http://www.w3.org/2000/svg" width="34.069" height="33.709" viewBox="0 0 34.069 33.709"><path d="M286.764,45.4a14.45,14.45,0,0,1,5.862,2.223,9.136,9.136,0,0,1,3.392,3.911.665.665,0,1,0,1.226-.517,10.456,10.456,0,0,0-3.872-4.5,15.786,15.786,0,0,0-6.4-2.436.665.665,0,0,0-.2,1.315Zm0,0" transform="translate(-267.156 -41.14)" fill="#3ccfbb"/><path d="M99.683,126.126a.665.665,0,1,0,.229-.8A.68.68,0,0,0,99.683,126.126Zm0,0" transform="translate(-93.006 -116.879)" fill="#3ccfbb"/><path d="M147.854,88.882a.665.665,0,1,0,.225-.794.679.679,0,0,0-.225.794Zm0,0" transform="translate(-137.971 -82.112)" fill="#3ccfbb"/><path d="M199.621,126.126a.665.665,0,1,0,.229-.8A.681.681,0,0,0,199.621,126.126Zm0,0" transform="translate(-186.294 -116.879)" fill="#3ccfbb"/><path d="M34.07,21.09a3.372,3.372,0,0,0-2.251-3.175V16.249a2.857,2.857,0,0,0,.6-.308,2.628,2.628,0,0,0,1.192-2.206,2.6,2.6,0,0,0-.493-1.531,2.147,2.147,0,0,0,.132-1.232,12.417,12.417,0,0,0-5.51-7.855A19.258,19.258,0,0,0,17.036,0,19.258,19.258,0,0,0,6.326,3.117a12.416,12.416,0,0,0-5.51,7.855,2.146,2.146,0,0,0,.278,1.515,2.588,2.588,0,0,0-.315,1.248,2.627,2.627,0,0,0,1.193,2.206,2.9,2.9,0,0,0,.28.165v1.808A3.372,3.372,0,0,0,0,21.09v.135a3.357,3.357,0,0,0,1.073,2.461,2.624,2.624,0,0,0,.385,2.97v2.4A4.658,4.658,0,0,0,6.112,33.71H27.96a4.658,4.658,0,0,0,4.652-4.652v-2.1a2.628,2.628,0,0,0,.591-3.48,3.352,3.352,0,0,0,.868-2.253Zm-1.331,0v.135A2.038,2.038,0,0,1,30.7,23.26H20.386l4.243-4.206H30.7a2.038,2.038,0,0,1,2.035,2.035ZM10.086,19.055l.106.106.683.682L9.446,21.272,7.228,19.055Zm6.283,4.4-4.082-4.082h0l-.318-.318H22.736l-4.447,4.4h0l0,0-.959.959ZM2.124,11.217a11.1,11.1,0,0,1,4.947-7,17.916,17.916,0,0,1,9.964-2.888A17.916,17.916,0,0,1,27,4.219a11.1,11.1,0,0,1,4.947,7,.836.836,0,0,1-.813.977H2.938a.836.836,0,0,1-.813-.977Zm.035,2.163a2.167,2.167,0,0,0,.778.145h28.2a2.17,2.17,0,0,0,1.057-.275,1.29,1.29,0,0,1,.095.486,1.316,1.316,0,0,1-.6,1.1,1.568,1.568,0,0,1-1.34.185c-.222-.07-.431-.161-.66-.21a3.6,3.6,0,0,0-.754-.076,3.647,3.647,0,0,0-2.339.812,2.455,2.455,0,0,1-3.142,0,3.774,3.774,0,0,0-4.677,0,2.456,2.456,0,0,1-3.142,0,3.775,3.775,0,0,0-4.677,0,2.456,2.456,0,0,1-3.143,0,3.645,3.645,0,0,0-2.339-.812,3.368,3.368,0,0,0-1.3.244,1.57,1.57,0,0,1-1.458-.142,1.316,1.316,0,0,1-.6-1.1,1.282,1.282,0,0,1,.049-.355Zm1.555,3.044a3.232,3.232,0,0,0,1-.229,2.292,2.292,0,0,1,1.021-.117,2.407,2.407,0,0,1,1.3.557,3.774,3.774,0,0,0,4.677,0,2.456,2.456,0,0,1,3.142,0,3.774,3.774,0,0,0,4.677,0,2.456,2.456,0,0,1,3.142,0,3.774,3.774,0,0,0,4.677,0,2.353,2.353,0,0,1,1.571-.568,2.154,2.154,0,0,1,.792.145,3.082,3.082,0,0,0,.769.2v1.315H3.582v-1.3l.132,0ZM1.332,21.09a2.038,2.038,0,0,1,2.035-2.035h1.98l3.629,3.629a.666.666,0,0,0,.941,0l1.9-1.9,2.476,2.476H3.367a2.038,2.038,0,0,1-2.035-2.035Zm.888,3.3a3.376,3.376,0,0,0,1.147.2H15.623l1.234,1.234a.672.672,0,0,0,.939,0l1.247-1.236H30.7a3.385,3.385,0,0,0,1.1-.186,1.7,1.7,0,0,0,.22-.088c.023-.012.055-.038.082-.036s.047.05.06.079a1.288,1.288,0,0,1,.114.507,1.385,1.385,0,0,1-1.031,1.324,1.576,1.576,0,0,1-1.03-.057,3.362,3.362,0,0,0-1.3-.244,3.645,3.645,0,0,0-2.339.812,2.455,2.455,0,0,1-3.142,0,3.774,3.774,0,0,0-4.677,0,2.455,2.455,0,0,1-3.142,0,3.774,3.774,0,0,0-4.677,0,2.455,2.455,0,0,1-3.142,0,3.647,3.647,0,0,0-2.339-.812,3.361,3.361,0,0,0-1.3.244,1.569,1.569,0,0,1-1.351-.077,1.365,1.365,0,0,1-.7-.97,1.313,1.313,0,0,1,0-.372c0-.036.066-.339.1-.327Zm29.061,4.668a3.326,3.326,0,0,1-3.322,3.322H6.111A3.326,3.326,0,0,1,2.79,29.057V27.479a2.882,2.882,0,0,0,1.7-.043l.034-.011c.051-.018.1-.036.153-.057a2.06,2.06,0,0,1,.793-.145,2.35,2.35,0,0,1,1.571.568,3.774,3.774,0,0,0,4.678,0,2.456,2.456,0,0,1,3.142,0,3.774,3.774,0,0,0,4.677,0,2.456,2.456,0,0,1,3.142,0,3.774,3.774,0,0,0,4.677,0,2.351,2.351,0,0,1,1.571-.568,2.2,2.2,0,0,1,.589.075c.182.051.354.131.536.182a2.871,2.871,0,0,0,1.228.069v1.508Zm0,0" transform="translate(-0.001 0)" fill="#3ccfbb"/><path d="M225.233,88.881a.665.665,0,1,0,.23-.8.68.68,0,0,0-.23.8Zm0,0" transform="translate(-210.201 -82.111)" fill="#3ccfbb"/><path d="M270.352,132.966a.665.665,0,1,0,.229-.8A.68.68,0,0,0,270.352,132.966Zm0,0" transform="translate(-252.318 -123.264)" fill="#3ccfbb"/><path d="M241.381,38.926a.666.666,0,1,0-.252-.789A.679.679,0,0,0,241.381,38.926Zm0,0" transform="translate(-225.046 -35.198)" fill="#3ccfbb"/></svg>