<svg xmlns="http://www.w3.org/2000/svg" width="37" height="37" viewBox="0 0 37 37"><g transform="translate(0.02)"><g transform="translate(-0.02)"><path d="M176.61,237.09h11.129v13.875H176.61Z" transform="translate(-166.058 -222.926)" fill="#5fbeb4"/><path d="M176.61,91.93h22.258v5.2H176.61Z" transform="translate(-166.058 -86.438)" fill="#fbea0a"/><path d="M36.259,0H7.063A.723.723,0,0,0,6.34.723V3.9H3.883a.723.723,0,0,0-.723.723v3.9H.7A.723.723,0,0,0-.02,9.25V33.1a3.907,3.907,0,0,0,3.9,3.9h29.2a3.907,3.907,0,0,0,3.9-3.9V.723A.723.723,0,0,0,36.258,0Zm-.723,33.1h0a2.46,2.46,0,0,1-2.457,2.457H6.912A3.885,3.885,0,0,0,7.785,33.1V23.342a.723.723,0,1,0-1.446,0V33.1a2.457,2.457,0,0,1-4.914,0V9.973H3.159v22.4a.723.723,0,0,0,1.446,0V5.347H6.339v18.91a.723.723,0,1,0,1.446,0V1.445H35.536Z" transform="translate(0.02)" fill="#4d4d4c"/><path d="M165.233,86.479h22.258a.723.723,0,0,0,.723-.723v-5.2a.723.723,0,0,0-.723-.723H165.233a.723.723,0,0,0-.723.723v5.2a.723.723,0,0,0,.723.723Zm.723-5.2h20.813v3.758H165.956Z" transform="translate(-154.681 -75.061)" fill="#4d4d4c"/><path d="M165.233,240.311h11.129a.723.723,0,0,0,.723-.723V225.713a.723.723,0,0,0-.723-.723H165.233a.723.723,0,0,0-.723.723v13.875A.723.723,0,0,0,165.233,240.311Zm.723-13.875h9.684v12.43h-9.684Z" transform="translate(-154.681 -211.549)" fill="#4d4d4c"/><path d="M417.243,225h-7.66a.723.723,0,0,0,0,1.446h7.66a.723.723,0,0,0,0-1.446Z" transform="translate(-384.433 -211.558)" fill="#4d4d4c"/><path d="M417.243,283.06h-7.66a.723.723,0,0,0,0,1.446h7.66a.723.723,0,0,0,0-1.446Z" transform="translate(-384.433 -266.149)" fill="#4d4d4c"/><path d="M417.243,341.12h-7.66a.723.723,0,0,0,0,1.446h7.66a.723.723,0,0,0,0-1.446Z" transform="translate(-384.433 -320.741)" fill="#4d4d4c"/><path d="M417.243,399.18h-7.66a.723.723,0,0,0,0,1.446h7.66a.723.723,0,0,0,0-1.446Z" transform="translate(-384.433 -375.332)" fill="#4d4d4c"/><path d="M417.243,457.25h-7.66a.723.723,0,1,0,0,1.446h7.66a.723.723,0,1,0,0-1.446Z" transform="translate(-384.433 -429.933)" fill="#4d4d4c"/><path d="M165.233,516.746h22.258a.723.723,0,1,0,0-1.446H165.233a.723.723,0,1,0,0,1.446Z" transform="translate(-154.681 -484.515)" fill="#4d4d4c"/></g></g></svg>