<svg xmlns="http://www.w3.org/2000/svg" width="28.952" height="37.764" viewBox="0 0 28.952 37.764"><g transform="translate(0)"><g transform="translate(0 0)"><path d="M529.4,145.029V112.3h4.406l3.072,12.287a2.542,2.542,0,0,1,.075.61v19.831H529.4Z" transform="translate(-508.63 -107.894)" fill="#d6d4d4"/><path d="M37.44,145.039H16.04V125.208a2.545,2.545,0,0,1,.075-.61l3.072-12.287h21.4L37.514,124.6a2.545,2.545,0,0,0-.075.61v19.831Z" transform="translate(-15.411 -107.904)" fill="#d6d4d4"/><path d="M149.415,497.32l-1.259,2.518h-2.518l-1.259-2.518Z" transform="translate(-138.715 -477.808)" fill="#d6d4d2"/><path d="M165.139,572.809h-1.073a1.259,1.259,0,0,1-1.255-1.349l.533-9.981h2.518l.533,9.981a1.259,1.259,0,0,1-1.255,1.349Z" transform="translate(-156.42 -539.451)" fill="#5fbeb4"/><path d="M322.109,440.7v-.629l-1.259-.629s.472-6.294,3.777-6.294V440.7Z" transform="translate(-308.262 -416.156)" fill="#d6d4d4"/><path d="M342.514,634.462h-.994a1.259,1.259,0,0,1-1.253-1.384l.491-7.428h2.518l.491,7.428a1.259,1.259,0,0,1-1.253,1.384Z" transform="translate(-326.911 -601.104)" fill="#5fbeb4"/><path d="M33.339,16.04c-.7,0-1.259,1.127-1.259,2.518s.563,2.518,1.259,2.518H56V16.04Z" transform="translate(-30.821 -15.411)" fill="#d6d4d4"/><path d="M612.128,18.558c0,1.39-.563,2.518-1.259,2.518s-1.259-1.127-1.259-2.518.563-2.518,1.259-2.518S612.128,17.167,612.128,18.558Z" transform="translate(-585.693 -15.411)" fill="#d6d4d4"/><path d="M561.49,869.437l3.147-3.147,3.147,3.147Z" transform="translate(-539.461 -832.302)" fill="#d6d4d4"/><path d="M28.859,16.54l-2.675-10.7a3.879,3.879,0,0,0,.881-2.691C27.064,1.353,26.253,0,25.176,0H2.518C1.441,0,.629,1.353.629,3.147s.812,3.147,1.888,3.147h.138L.094,16.54A3.146,3.146,0,0,0,0,17.3V37.135a.629.629,0,0,0,.629.629H28.323a.63.63,0,0,0,.629-.629V17.3a3.148,3.148,0,0,0-.094-.763Zm-1.165.763h0V35.615l-1.888-1.888V18.253a.629.629,0,1,0-1.259,0V33.727l-1.888,1.888V17.3a1.9,1.9,0,0,1,.056-.458L25.176,7l2.461,9.845A1.879,1.879,0,0,1,27.694,17.3ZM25.176,34.877h0L26.8,36.505H23.549l1.628-1.628Zm.629-31.731h0c0,1.219-.473,1.888-.629,1.888s-.629-.669-.629-1.888.473-1.888.629-1.888S25.805,1.928,25.805,3.147Zm-23.917,0h0c0-1.281.5-1.888.629-1.888H23.645a4.771,4.771,0,0,0-.357,1.888,4.768,4.768,0,0,0,.357,1.888H2.518c-.125,0-.629-.607-.629-1.888ZM1.259,17.3h0a1.878,1.878,0,0,1,.056-.458L3.953,6.294h20.1L21.494,16.54a3.148,3.148,0,0,0-.094.763v19.2H1.259V17.3Z" transform="translate(0 0)" fill="#4d4d4c"/><path d="M134,417.1a.629.629,0,0,0-.629.629v1.888h-1.259v-1.888a.629.629,0,1,0-1.259,0v1.888H129.6v-1.888a.629.629,0,1,0-1.259,0v2.518h0a.627.627,0,0,0,.065.282l1.185,2.369-.524,9.81a1.888,1.888,0,0,0,1.884,2.017h1.073a1.888,1.888,0,0,0,1.884-2.017l-.524-9.81,1.184-2.369a.628.628,0,0,0,.066-.282h0v-2.518a.63.63,0,0,0-.629-.629Zm-1.018,3.776h0l-.629,1.259h-1.74l-.629-1.259Zm-.5,12.388h0a.625.625,0,0,1-.461.2h-1.073a.629.629,0,0,1-.628-.674v-.011l.5-9.385h1.324l.5,9.385v.011a.625.625,0,0,1-.167.474Z" transform="translate(-123.305 -400.736)" fill="#4d4d4c"/><path d="M310.34,432.659l-.489-7.4v-7.532a.63.63,0,0,0-.629-.629c-3.844,0-4.383,6.6-4.4,6.876a.629.629,0,0,0,.346.61l.911.456v.22l-.489,7.4a1.888,1.888,0,0,0,1.88,2.064h.994a1.888,1.888,0,0,0,1.88-2.064h0Zm-3.642-11.6h0a3.859,3.859,0,0,1,1.895-2.585v6.179h-1.259a.63.63,0,0,0-.348-.563l-.868-.434a13.852,13.852,0,0,1,.579-2.6h0Zm2.23,12.2h0a.625.625,0,0,1-.467.207h-.994a.63.63,0,0,1-.627-.693c0-.007,0-.014,0-.021l.452-6.84h1.339l.452,6.84c0,.007,0,.014,0,.021a.622.622,0,0,1-.16.485h0Z" transform="translate(-292.857 -400.736)" fill="#4d4d4c"/></g></g></svg>