<svg xmlns="http://www.w3.org/2000/svg" width="40" height="40" viewBox="0 0 40 40"><g transform="translate(0 0.01)"><g transform="translate(0 -0.01)"><path d="M20,39.99a20,20,0,1,1,20-20A20.022,20.022,0,0,1,20,39.99Z" transform="translate(0 0.01)" fill="#fbea0a"/><path d="M1550.41,940.77a2.52,2.52,0,1,1-2.52-2.52A2.52,2.52,0,0,1,1550.41,940.77Z" transform="translate(-1523.123 -924.743)" fill="#4d4d4c"/><path d="M888.1,940.77a2.52,2.52,0,1,1-2.52-2.52A2.519,2.519,0,0,1,888.1,940.77Z" transform="translate(-870.347 -924.743)" fill="#4d4d4c"/><path d="M781.94,1590.906a11.984,11.984,0,0,1-8.5-3.516,2.52,2.52,0,0,1,3.564-3.564,6.992,6.992,0,0,0,9.876,0,2.52,2.52,0,0,1,3.564,3.564A11.987,11.987,0,0,1,781.94,1590.906Z" transform="translate(-761.94 -1560.403)" fill="#4d4d4c"/></g></g></svg>