<svg xmlns="http://www.w3.org/2000/svg" width="25.085" height="25.085" viewBox="0 0 25.085 25.085"><path d="M187.217,0H167.148a2.515,2.515,0,0,0-2.508,2.508V22.577a2.518,2.518,0,0,0,2.508,2.508h20.069a2.518,2.518,0,0,0,2.508-2.508V2.508A2.518,2.518,0,0,0,187.217,0Zm-5.025,13.14h-.014a.619.619,0,0,0-.618.622.625.625,0,1,0,.627-.622Zm-.023-1.872a2.494,2.494,0,1,0,2.494,2.494A2.494,2.494,0,0,0,182.169,11.268Zm0,3.739a1.245,1.245,0,1,1,1.245-1.245A1.246,1.246,0,0,1,182.169,15.007Zm-9.95-1.867h-.014a.619.619,0,0,0-.618.622.625.625,0,1,0,.627-.622Zm-.023-1.872a2.494,2.494,0,1,0,2.494,2.494,2.5,2.5,0,0,0-2.494-2.494Zm0,3.739a1.245,1.245,0,1,1,1.245-1.245A1.246,1.246,0,0,1,172.2,15.007Zm-1.483-6.233h-2.879a.622.622,0,0,0-.334,1.149,3,3,0,0,1,.76.787,4.906,4.906,0,0,0-1.053,3.048,4.984,4.984,0,0,0,8.549,3.483l.984,1.263a.62.62,0,0,0,.49.238h.009a.633.633,0,0,0,.494-.256l.888-1.227a4.981,4.981,0,0,0,8.526-3.5,4.906,4.906,0,0,0-1.053-3.048,2.893,2.893,0,0,1,.764-.787.622.622,0,0,0-.334-1.149h-2.879a9.815,9.815,0,0,0-12.938,0Zm8.394,7.135-.009-.014a3.739,3.739,0,0,1,3.071-5.872h2.9a3.276,3.276,0,0,0-.284.517.616.616,0,0,0,.119.687,3.661,3.661,0,0,1,1.011,2.54,3.739,3.739,0,0,1-6.8,2.146Zm-1.268.325-.622.86-.682-.87a4.974,4.974,0,0,0,.65-2.458A4.951,4.951,0,0,0,177.839,16.233Zm-.654-2.467a4.99,4.99,0,0,0-4.4-4.952,8.571,8.571,0,0,1,8.81,0,4.99,4.99,0,0,0-4.4,4.952ZM172.2,17.506a3.74,3.74,0,0,1-3.739-3.739,3.681,3.681,0,0,1,1.011-2.54.632.632,0,0,0,.119-.687,4.232,4.232,0,0,0-.284-.517h2.9a3.737,3.737,0,0,1,3.076,5.863h0l-.009.014-.009.014A3.733,3.733,0,0,1,172.2,17.5Z" transform="translate(-164.64)" fill="#3f4444" fill-rule="evenodd"/></svg>