<svg xmlns="http://www.w3.org/2000/svg" width="25.085" height="25.085" viewBox="0 0 25.085 25.085"><path d="M104.917.02H84.848A2.515,2.515,0,0,0,82.34,2.528V22.6A2.518,2.518,0,0,0,84.848,25.1h20.069a2.518,2.518,0,0,0,2.508-2.508V2.528A2.518,2.518,0,0,0,104.917.02ZM94.88,7.544a5.016,5.016,0,1,1-5.016,5.016A5.03,5.03,0,0,1,94.88,7.544ZM85.47,22.6a.593.593,0,0,1-.627-.627V11.306h2.632a4.327,4.327,0,0,0-.124,1.254,7.524,7.524,0,0,0,15.048,0,4.327,4.327,0,0,0-.124-1.254h2.636V21.97a.593.593,0,0,1-.627.627ZM104.912,5.663a.593.593,0,0,1-.627.627h-2.508a.593.593,0,0,1-.627-.627V3.155a.593.593,0,0,1,.627-.627h2.508a.593.593,0,0,1,.627.627Z" transform="translate(-82.34 -0.02)" fill="#3f4444" fill-rule="evenodd"/></svg>