<svg xmlns="http://www.w3.org/2000/svg" width="42.74" height="37.605" viewBox="0 0 42.74 37.605"><path d="M42.74,43.808c0-1.548-1.153-3.761-6.648-5.51a43.741,43.741,0,0,0-9.39-1.727,4.7,4.7,0,0,1,.787-1.664,6.569,6.569,0,0,0,.005-7.858.963.963,0,0,0-1.57,1.117l.017.023a4.654,4.654,0,0,1,0,5.571,6.627,6.627,0,0,0-1.185,2.678c-1.094-.057-2.21-.087-3.339-.088a4.714,4.714,0,0,1,.726-1.444,6.569,6.569,0,0,0,.005-7.858.963.963,0,0,0-1.57,1.117l.017.023a4.654,4.654,0,0,1,0,5.571,6.63,6.63,0,0,0-1.173,2.619c-1.16.034-2.3.1-3.412.193a4.7,4.7,0,0,1,.788-1.666,6.57,6.57,0,0,0,0-7.864l-.016-.021a.963.963,0,0,0-1.53,1.17,4.654,4.654,0,0,1,0,5.569,6.614,6.614,0,0,0-1.241,3.018A40.73,40.73,0,0,0,6.648,38.3C1.153,40.047,0,42.26,0,43.808c0,.025,0,.051,0,.076a19.883,19.883,0,0,0,6.274,14.4A21.727,21.727,0,0,0,21.37,64.258a21.727,21.727,0,0,0,15.095-5.974,19.884,19.884,0,0,0,6.274-14.4Q42.74,43.846,42.74,43.808ZM7.232,40.134a38.422,38.422,0,0,1,6.792-1.418,6.621,6.621,0,0,0,1.226,2.909A.963.963,0,1,0,16.8,40.479a4.691,4.691,0,0,1-.852-1.967c1.1-.1,2.224-.165,3.373-.2A6.606,6.606,0,0,0,20.6,41.626a.963.963,0,1,0,1.548-1.147,4.684,4.684,0,0,1-.888-2.2h.114c1.118,0,2.22.029,3.3.085a6.606,6.606,0,0,0,1.271,3.262.963.963,0,1,0,1.548-1.147,4.691,4.691,0,0,1-.854-1.981,41.611,41.611,0,0,1,8.873,1.636c3.273,1.042,5.306,2.449,5.306,3.674,0,1.078-1.577,2.3-4.188,3.286A49.764,49.764,0,0,0,21.37,44.97,49.758,49.758,0,0,0,6.114,47.094c-2.611-.987-4.188-2.208-4.188-3.286C1.926,42.584,3.959,41.176,7.232,40.134Zm25.943,7.984a53.248,53.248,0,0,1-11.806,1.22,53.245,53.245,0,0,1-11.806-1.22A53.7,53.7,0,0,1,21.37,46.9,53.7,53.7,0,0,1,33.176,48.119ZM21.37,62.332C11.908,62.332,4,55.86,2.278,47.319a16.5,16.5,0,0,0,4.371,2A50.539,50.539,0,0,0,21.37,51.265a50.542,50.542,0,0,0,14.722-1.947,16.494,16.494,0,0,0,4.37-2C38.735,55.86,30.831,62.332,21.37,62.332Z" transform="translate(0 -26.653)" fill="#3ccfbb"/></svg>