<svg xmlns="http://www.w3.org/2000/svg" width="45" height="45" viewBox="0 0 45 45"><path d="M22.5,45A22.5,22.5,0,1,0,6.59,38.41,22.487,22.487,0,0,0,22.5,45Zm0-43.681A21.182,21.182,0,1,1,1.318,22.5,21.17,21.17,0,0,1,22.5,1.318Z" fill="#3ccfbb"/><path d="M214.206,221.836a.659.659,0,1,0,.527-1.208,3.192,3.192,0,1,1,2.549,0,.659.659,0,0,0,.527,1.209,4.51,4.51,0,1,0-3.6,0Z" transform="translate(-192.908 -194.452)" fill="#3ccfbb"/><path d="M72.128,93.453A17.333,17.333,0,0,0,89.386,77.718a.659.659,0,1,0-1.313-.12,16.014,16.014,0,0,1-31.96-1.478c0-.475.022-.955.064-1.433h2.352v2.476a1.822,1.822,0,0,0,1.82,1.82h4.244a8.417,8.417,0,0,0,2.558,4.174,4.361,4.361,0,0,1,1.089,1.43,4.941,4.941,0,0,0,6.272,2.538,3.959,3.959,0,0,0,7.378-1.042,3.958,3.958,0,0,0,2.431-4.468,3.952,3.952,0,0,0,.844-5.049,2.816,2.816,0,0,0-.226-3.556.092.092,0,0,1-.014-.116,2.847,2.847,0,0,0-1.005-4.628c-.049-.018-.079-.058-.077-.084a2.841,2.841,0,0,0-3.521-2.95.126.126,0,0,1-.155-.066,2.844,2.844,0,0,0-4.715-.823.085.085,0,0,1-.089.02,2.827,2.827,0,0,0-3.778,2.05,4.956,4.956,0,0,0-3.345,2.739,4.071,4.071,0,0,1-.592.921,1.819,1.819,0,0,0-1.384-.645h-2.3V66.951a1.822,1.822,0,0,0-1.82-1.82H60.477a16.015,16.015,0,0,1,27.6,9.511.659.659,0,1,0,1.313-.12,17.331,17.331,0,0,0-30.661-9.391H56.23a1.822,1.822,0,0,0-1.82,1.82v5.916a1.812,1.812,0,0,0,.5,1.25,17.532,17.532,0,0,0-.116,2A17.353,17.353,0,0,0,72.128,93.453Zm5.888-5.534a2.661,2.661,0,0,1-2.345-1.429,5.208,5.208,0,0,0,1.64-2.1,4.459,4.459,0,0,1,.994-1.237c.142-.126.307-.284.435-.415a2.655,2.655,0,0,1,1.9,2.783h0A2.643,2.643,0,0,1,78.016,87.919Zm3.9-3.326a4.011,4.011,0,0,0-2.284-2.926,8.688,8.688,0,0,0,.992-1.9,2.639,2.639,0,0,1,1.292,4.825Zm1.879-4.3a3.962,3.962,0,0,0-2.811-1.81,8.556,8.556,0,0,0,.114-2.437,2.639,2.639,0,0,1,2.7,4.247Zm-8.909-14.7a1.4,1.4,0,0,0,1.559-.375,1.525,1.525,0,0,1,2.5.439,1.447,1.447,0,0,0,1.714.853,1.524,1.524,0,0,1,1.873,1.56,1.414,1.414,0,0,0,.937,1.437A1.528,1.528,0,0,1,84,71.961a1.4,1.4,0,0,0-.021,1.947,1.5,1.5,0,0,1,.282,1.607,3.961,3.961,0,0,0-3.395-.775A8.466,8.466,0,0,0,78.3,70.581a4.392,4.392,0,0,1-1.089-1.43,4.959,4.959,0,0,0-4.2-2.866A1.515,1.515,0,0,1,74.883,65.589ZM69.438,69.7a3.625,3.625,0,0,1,6.579,0,5.672,5.672,0,0,0,1.412,1.865,7.11,7.11,0,0,1,2.263,3.988l0,.008a7.086,7.086,0,0,1-2.265,6.607,5.667,5.667,0,0,0-1.412,1.865,3.625,3.625,0,0,1-6.579,0,5.668,5.668,0,0,0-1.412-1.865,7.083,7.083,0,0,1,0-10.6A5.667,5.667,0,0,0,69.438,69.7ZM66.7,71.008a8.42,8.42,0,0,0-2.383,5.861c0,.253.016.566.038.8H60.349a.5.5,0,0,1-.5-.5V71.247a.5.5,0,0,1,.5-.5h5.916A.5.5,0,0,1,66.7,71.008ZM55.728,66.951a.5.5,0,0,1,.5-.5h5.916a.5.5,0,0,1,.5.5v2.476h-2.3a1.822,1.822,0,0,0-1.82,1.82v2.121h-2.3a.48.48,0,0,1-.065,0h-.009a.5.5,0,0,1-.192-.073l-.019-.01a.5.5,0,0,1-.217-.412V66.951Z" transform="translate(-49.628 -53.62)" fill="#3ccfbb"/></svg>