<svg xmlns="http://www.w3.org/2000/svg" width="43.938" height="43.938" viewBox="0 0 43.938 43.938"><g transform="translate(23.434 10.98)"><path d="M263.691,123.783l-.47-1.547a3.361,3.361,0,0,0-6.365,0l-.47,1.547a8.692,8.692,0,0,0-.242,4.028,3.788,3.788,0,0,0,1.951,2.64l-.527,11.77a2.319,2.319,0,0,0,.586,1.8,2.558,2.558,0,0,0,3.614.162q.085-.077.162-.162a2.288,2.288,0,0,0,.586-1.754l-.529-11.821a3.787,3.787,0,0,0,1.948-2.638A8.691,8.691,0,0,0,263.691,123.783Zm-1.2,3.773a2.322,2.322,0,0,1-1.52,1.749.732.732,0,0,0-.474.718l.557,12.362a.847.847,0,0,1-.22.663,1.131,1.131,0,0,1-1.592,0,.879.879,0,0,1-.215-.712l.552-12.313a.732.732,0,0,0-.474-.718,2.322,2.322,0,0,1-1.52-1.749,7.222,7.222,0,0,1,.2-3.344l.47-1.548a1.9,1.9,0,0,1,3.562,0l.47,1.548A7.232,7.232,0,0,1,262.491,127.556Z" transform="translate(-256.012 -119.955)" fill="#3ccfbb"/></g><g transform="translate(12.449 10.984)"><path d="M143.323,120a.732.732,0,0,0-.732.732v6.287L140.608,129a.732.732,0,0,0-.215.554l.641,12.815a1,1,0,0,1-.277.746,1.031,1.031,0,0,1-1.458.006l-.006-.006a1,1,0,0,1-.277-.746l.645-12.815a.732.732,0,0,0-.214-.554l-1.983-1.982v-6.287a.732.732,0,1,0-1.465,0v6.591a.732.732,0,0,0,.215.518l1.967,1.968-.625,12.492a2.474,2.474,0,1,0,4.941.241q.006-.12,0-.241l-.625-12.492,1.967-1.968a.732.732,0,0,0,.215-.518v-6.591A.732.732,0,0,0,143.323,120Z" transform="translate(-136 -120)" fill="#3ccfbb"/></g><g transform="translate(14.646 10.984)"><path d="M160.732,120a.732.732,0,0,0-.732.732v5.858a.732.732,0,1,0,1.465,0v-5.858A.732.732,0,0,0,160.732,120Z" transform="translate(-160 -120)" fill="#3ccfbb"/></g><g transform="translate(16.843 10.984)"><path d="M184.732,120a.732.732,0,0,0-.732.732v5.858a.732.732,0,1,0,1.465,0v-5.858A.732.732,0,0,0,184.732,120Z" transform="translate(-184 -120)" fill="#3ccfbb"/></g><path d="M21.969,0A21.969,21.969,0,1,0,43.938,21.969,21.969,21.969,0,0,0,21.969,0Zm0,42.473a20.5,20.5,0,1,1,20.5-20.5A20.5,20.5,0,0,1,21.969,42.473Z" fill="#3ccfbb"/><g transform="translate(19.599 35.054)"><path d="M218.859,383.61a.732.732,0,0,0-.8-.658l-.028,0h0a13.453,13.453,0,0,1-3.1,0,.733.733,0,0,0-.171,1.455,14.83,14.83,0,0,0,3.442,0A.732.732,0,0,0,218.859,383.61Z" transform="translate(-214.113 -382.949)" fill="#3ccfbb"/></g><g transform="translate(31.058 12.271)"><path d="M341.41,134.315a.732.732,0,0,0-1.032-.09l0,0a.732.732,0,0,0-.088,1.032,13.181,13.181,0,0,1-.777,17.829.732.732,0,1,0,1.034,1.038A14.646,14.646,0,0,0,341.41,134.315Z" transform="translate(-339.295 -134.053)" fill="#3ccfbb"/></g><g transform="translate(16.328 7.325)"><path d="M186.356,105.743h0Z" transform="translate(-185.622 -103.389)" fill="#3ccfbb"/><path d="M187.476,80.434a14.776,14.776,0,0,0-8.62.529.732.732,0,1,0,.513,1.37,13.3,13.3,0,0,1,7.762-.476.732.732,0,1,0,.344-1.424Z" transform="translate(-178.382 -80.027)" fill="#3ccfbb"/></g><g transform="translate(7.322 13.043)"><path d="M85.3,160.714a13.18,13.18,0,0,1-1.324-17.054.732.732,0,0,0-1.171-.88l-.013.017a14.646,14.646,0,0,0,1.47,18.953.733.733,0,1,0,1.038-1.037Z" transform="translate(-79.989 -142.488)" fill="#3ccfbb"/></g></svg>