<svg xmlns="http://www.w3.org/2000/svg" width="44.011" height="37.554" viewBox="0 0 44.011 37.554"><path d="M42.432,51.5c-2-2.37-4.284-1.991-6.495-1.625a12.934,12.934,0,0,1-3.546.251c-.165-.018-.326-.04-.484-.066A10.541,10.541,0,0,0,33.281,47.3a.646.646,0,0,0-1.228-.4,9.365,9.365,0,0,1-1.51,2.829c-.6-.184-1.17-.406-1.727-.624-2.19-.856-4.262-1.664-7.1.489a6.017,6.017,0,0,0-3.059-1.932c-3.622-.942-5.219.669-6.91,2.374l-.079.08c-1.549-2.271-1.752-4.9-.464-6.723,1.7-2.4,3.312-2.307,5.517-2.11a3.185,3.185,0,0,0,.954,2.37,3.683,3.683,0,0,0,2.7.774,8.075,8.075,0,0,0,.992-.114c1.711-.3,2.842-.948,3.364-1.935a3.26,3.26,0,0,0,.1-2.584c1.873-.9,3.278-1.48,5.164-.225a5.723,5.723,0,0,1,2.465,4.988.646.646,0,0,0,.636.655h.01a.646.646,0,0,0,.646-.636A6.991,6.991,0,0,0,30.7,38.495c-2.581-1.717-4.67-.713-6.69.257a12.93,12.93,0,0,1-3.335,1.233,13.528,13.528,0,0,1-3.716.026c-2.392-.214-4.652-.416-6.814,2.639a6.168,6.168,0,0,0-1.036,4.41,8.721,8.721,0,0,0,1.618,3.973A10.405,10.405,0,0,1,8.89,52.415a12.932,12.932,0,0,1-3.344,1.207c-2.17.56-4.413,1.14-5.28,4.116A6.678,6.678,0,0,0,.4,61.875a.652.652,0,0,0,.87.373.652.652,0,0,0,.346-.808A5.394,5.394,0,0,1,1.506,58.1c.633-2.174,2.084-2.634,4.093-3.157a3.26,3.26,0,0,0,1.74,1.913,2.846,2.846,0,0,0,1.077.2,5.585,5.585,0,0,0,2.742-.891,4.236,4.236,0,0,0,2.394-2.882,3.185,3.185,0,0,0-.8-2.427c1.559-1.572,2.729-2.684,5.578-1.943a5.166,5.166,0,0,1,3.384,3.107A9.268,9.268,0,0,1,21.27,59.7a14.971,14.971,0,0,1-3.02.126c-2.24-.06-4.556-.123-6.211,2.5a6.679,6.679,0,0,0-1.014,4.051c0,.008,0,.017,0,.025a9.554,9.554,0,0,1-8.221-2.938.646.646,0,0,0-.981.841,10.6,10.6,0,0,0,8.1,3.443,12.694,12.694,0,0,0,1.313-.07,8.512,8.512,0,0,0,1.231,2.7,10.635,10.635,0,0,0,5.009,3.879,13.177,13.177,0,0,0,4.771.858,15.776,15.776,0,0,0,2.945-.283,14.469,14.469,0,0,0,4.757-1.771.646.646,0,1,0-.664-1.108,13.183,13.183,0,0,1-4.334,1.61,12.786,12.786,0,0,1-7.007-.51,9.352,9.352,0,0,1-4.409-3.4,5.93,5.93,0,0,1-.4-6.636c1.209-1.915,2.73-1.957,4.806-1.9a3.26,3.26,0,0,0,1.145,2.319,3.313,3.313,0,0,0,2.1.637,7.213,7.213,0,0,0,1.761-.245,4.236,4.236,0,0,0,3.1-2.109,3.185,3.185,0,0,0-.1-2.553c1.932-1.08,3.364-1.826,5.9-.328a5.189,5.189,0,0,1,2.409,4.028,9.385,9.385,0,0,1-3,7.6.646.646,0,0,0,.893.933A11.076,11.076,0,0,0,35.457,65.3a11.133,11.133,0,0,0,8.1-6.825A7.012,7.012,0,0,0,42.432,51.5ZM20.905,41.257a11.552,11.552,0,0,0,2.739-.9,1.939,1.939,0,0,1-.06,1.424,3.276,3.276,0,0,1-2.443,1.266,3.094,3.094,0,0,1-2.6-.344,1.869,1.869,0,0,1-.526-1.31,12.168,12.168,0,0,0,2.887-.133ZM12.273,53.114c-.088.653-.681,1.305-1.765,1.938a3.276,3.276,0,0,1-2.683.607,1.94,1.94,0,0,1-.964-1.05,11.543,11.543,0,0,0,2.677-1.075,12.163,12.163,0,0,0,2.293-1.76A1.869,1.869,0,0,1,12.273,53.114Zm22.862-1.808a1.939,1.939,0,0,1-.456,1.351,3.277,3.277,0,0,1-2.7.532,3.1,3.1,0,0,1-2.4-1.057,1.869,1.869,0,0,1-.139-1.4,12.169,12.169,0,0,0,2.809.68A11.533,11.533,0,0,0,35.134,51.306ZM24.856,61.2c-.264.6-1.015,1.066-2.231,1.375a3.276,3.276,0,0,1-2.747-.157,1.939,1.939,0,0,1-.636-1.275,11.547,11.547,0,0,0,2.869-.294,12.162,12.162,0,0,0,2.69-1.059,1.869,1.869,0,0,1,.055,1.41Zm17.478-3.142a9.74,9.74,0,0,1-6.747,5.878,8.954,8.954,0,0,0-.055-1.219A6.448,6.448,0,0,0,32.5,57.723c-3.222-1.906-5.2-.8-7.3.375a17.9,17.9,0,0,1-2.312,1.147,10.232,10.232,0,0,0,.013-7.737,7.993,7.993,0,0,0-.435-.858c2.233-1.711,3.736-1.175,5.759-.385a3.185,3.185,0,0,0,.254,2.542,4.236,4.236,0,0,0,3.356,1.665,8.54,8.54,0,0,0,.946.056,3.774,3.774,0,0,0,2.825-.973,3.26,3.26,0,0,0,.816-2.454c2.048-.336,3.561-.5,5.021,1.228A5.75,5.75,0,0,1,42.334,58.055Z" transform="translate(0.001 -37.564)" fill="#3ccfbb"/></svg>