<svg xmlns="http://www.w3.org/2000/svg" width="45.5" height="33.812" viewBox="0 0 45.5 33.812"><g transform="translate(0 -65.762)"><path d="M258.63,249.114l1.364.52a.666.666,0,0,0,.475-1.245l-1.364-.52a.667.667,0,0,0-.475,1.245Z" transform="translate(-235.256 -165.882)" fill="#3ccfbb"/><path d="M43.069,85.586h-.362a4.455,4.455,0,0,0,1.524-1.543A3.065,3.065,0,0,0,43.2,80.064,6.5,6.5,0,0,0,32.55,73.071L29.47,68.657a.666.666,0,0,0-.982-.123,8.322,8.322,0,0,0-2,2.576,4.359,4.359,0,0,0-1.831.679,11.329,11.329,0,0,0-1.031-3.842.667.667,0,1,0-1.183.615,11.913,11.913,0,0,1,.964,4.522.666.666,0,0,0,1.139.467,5.075,5.075,0,0,1,1.36-.923,8.313,8.313,0,0,0,.433,5.663l-5.981,2.677c-1.359-2.354-2.77-3.465-4.2-3.305a2.911,2.911,0,0,0-.989.278c-1.074-1.711-1.493-3.045-1.123-3.6.139-.21.562-.85,1.841-.561a5.1,5.1,0,0,1,1.407.577.667.667,0,0,0,1.01-.7,13.1,13.1,0,0,1-.246-1.936c0-.019,0-.038,0-.057a6.323,6.323,0,0,1,.7-3.739,1.9,1.9,0,0,1,1.412-.8,2.265,2.265,0,0,1,.536,0,.667.667,0,0,0,.17-1.322,3.593,3.593,0,0,0-.853,0,3.206,3.206,0,0,0-2.348,1.351,5.986,5.986,0,0,0-.945,3.18,6.5,6.5,0,0,0-8.974,9.01,4.307,4.307,0,0,0,.013,1.081c-1.3-.373-3.365-.765-4.834-.063a2.894,2.894,0,0,0-1.573,1.871A3.07,3.07,0,0,0,2.5,85.586h-.07A2.434,2.434,0,0,0,0,88.017v.143a2.434,2.434,0,0,0,2.431,2.431h2.2L9.98,95.8a2.269,2.269,0,0,0-.626,1.566v.019a2.211,2.211,0,0,0,2.278,2.189H33.867a2.211,2.211,0,0,0,2.278-2.189v-.019A2.269,2.269,0,0,0,35.52,95.8l5.345-5.209h2.2A2.434,2.434,0,0,0,45.5,88.16v-.143a2.434,2.434,0,0,0-2.431-2.431ZM43.061,83.4c-.447.82-1.719,1.588-3.491,2.107a.664.664,0,0,0-.164.074H27.015a8.286,8.286,0,0,0,1.187-6.5,1.754,1.754,0,0,1,1.3-.558c.654.074.791.332.836.417.282.531-.1,1.611-.335,2.049a.667.667,0,0,0,1.11.728,14.44,14.44,0,0,1,3.939-3.548.665.665,0,0,0,.145-.065,1.11,1.11,0,0,1,.834-.092c.33.142.764.445.721,1.423a4.394,4.394,0,0,1-.275,1.281.666.666,0,0,0,.871.87c.9-.37,3.534-1.182,4.957-.5a1.722,1.722,0,0,1,.756,2.312Zm-20.414,1.7-.6-1.332a.666.666,0,1,0-1.217.544l.566,1.266H19.3l.244-.64A.667.667,0,0,0,18.3,84.47l-.426,1.116h-3.1c-.011-.014-.274-.335-.386-.488l12.538-5.611a7.085,7.085,0,0,1-1.467,5.963.665.665,0,0,0-.087.136h-2.7a.663.663,0,0,0-.025-.478Zm12.216-8.722a2.622,2.622,0,1,1,3.931,3.326.671.671,0,0,0-.069.065c-.242.056-.47.117-.679.176A2.762,2.762,0,0,0,36.559,76.8a2.139,2.139,0,0,0-1.449-.056ZM37.146,72.5a5.178,5.178,0,0,1,5.172,5.172,5.116,5.116,0,0,1-.371,1.922,5.924,5.924,0,0,0-1.3-.087,3.956,3.956,0,0,0-6.6-4.291l-.718-1.029A5.16,5.16,0,0,1,37.146,72.5Zm-8.324-2.441,5.057,7.248a11.284,11.284,0,0,0-1.607,1.248c-.183.166-.36.335-.528.5a2.178,2.178,0,0,0-.227-.728,2.228,2.228,0,0,0-1.867-1.121,2.835,2.835,0,0,0-2.044.651,7.021,7.021,0,0,1,1.217-7.8Zm-14.6,8.872a2.245,2.245,0,0,0-.158.58c-.169-.166-.346-.334-.528-.5a8.61,8.61,0,0,0-2.458-1.686c-.007-.011-.013-.022-.021-.033a2.622,2.622,0,0,1,2.152-4.121l.068,0a2.972,2.972,0,0,0-.342.428c-.742,1.122-.32,2.867,1.287,5.331ZM8.038,75.791a5.171,5.171,0,0,1,8.706-3.776c.016.224.036.437.058.632a4.67,4.67,0,0,0-1.606-.276,3.956,3.956,0,0,0-5.7,4.793,1.862,1.862,0,0,0-.251.087,2.508,2.508,0,0,0-.808.544,5.16,5.16,0,0,1-.4-2ZM5.017,85.537c-1.921-.8-2.723-1.794-2.384-2.944A1.59,1.59,0,0,1,3.5,81.547c1.417-.679,4.06.132,4.958.5a.667.667,0,0,0,.871-.868A4.393,4.393,0,0,1,9.056,79.9c-.043-.978.391-1.28.721-1.423.951-.41,3.467,1.889,4.919,3.705a.667.667,0,0,0,1.11-.727c-.231-.439-.617-1.519-.335-2.05.045-.085.182-.343.836-.417.8-.091,1.816.824,2.823,2.528l-6,2.685a.667.667,0,0,0-.305.941c.087.152.182.3.279.446H5.111a.651.651,0,0,0-.094-.049Zm29.8,11.848a.878.878,0,0,1-.945.856H11.632a.878.878,0,0,1-.945-.856v-.019a.946.946,0,0,1,.945-.945H33.867a.946.946,0,0,1,.945.945Zm9.355-9.225a1.1,1.1,0,0,1-1.1,1.1H12.751a.667.667,0,1,0,0,1.333h26.2l-4.614,4.5H11.159l-4.614-4.5h3.54a.667.667,0,0,0,0-1.333H2.431a1.1,1.1,0,0,1-1.1-1.1v-.143a1.1,1.1,0,0,1,1.1-1.1H43.069a1.1,1.1,0,0,1,1.1,1.1Z" fill="#3ccfbb"/><path d="M321.337,167.056h.027l1.254-.049a.666.666,0,0,0-.052-1.332l-1.254.049a.666.666,0,0,0,.026,1.332Z" transform="translate(-292.174 -91.033)" fill="#3ccfbb"/></g></svg>