<svg xmlns="http://www.w3.org/2000/svg" width="53.585" height="31.397" viewBox="0 0 53.585 31.397"><path d="M51.491,21.112V16.469A3.057,3.057,0,0,0,53.28,13C51.047,3.426,36.641,0,26.792,0A46.141,46.141,0,0,0,11.855,2.467a1.047,1.047,0,1,0,.705,1.971c.178-.064.36-.127.543-.188l1.374,3.773a3.14,3.14,0,0,0,5.9-2.148L19.236,2.736c1.185-.2,2.394-.355,3.614-.463l2.094,5.749a3.14,3.14,0,1,0,5.9-2.148L29.5,2.18c1.309.081,2.625.219,3.933.412l1.977,5.43a3.14,3.14,0,1,0,5.9-2.148l-.557-1.528c4.061,1.423,9.335,4.186,10.488,9.132A1.025,1.025,0,0,1,50.2,14.653H3.387a1.025,1.025,0,0,1-1.045-1.175A9.929,9.929,0,0,1,5.62,8.291a1.047,1.047,0,1,0-1.385-1.57A11.976,11.976,0,0,0,.3,13a3.057,3.057,0,0,0,1.788,3.467v4.643A3.145,3.145,0,0,0,0,24.072,7.334,7.334,0,0,0,7.325,31.4H46.258a7.334,7.334,0,0,0,7.326-7.326,3.145,3.145,0,0,0-2.093-2.96ZM17.785,7.932a1.048,1.048,0,0,1-1.341-.626L15.108,3.638c.666-.183,1.35-.35,2.046-.5l1.257,3.452a1.05,1.05,0,0,1-.625,1.343Zm10.466,0a1.048,1.048,0,0,1-1.341-.626L25.026,2.132c.6-.025,1.188-.038,1.766-.038l.45,0,1.635,4.493a1.05,1.05,0,0,1-.625,1.343Zm10.466,0a1.048,1.048,0,0,1-1.341-.626l-1.565-4.3c.83.168,1.644.359,2.435.569l1.1,3.014a1.05,1.05,0,0,1-.625,1.343Zm-1.026,13,4.186-4.186H49.4v4.186ZM22.605,24.685l-7.939-7.939H30.545ZM4.186,16.746h7.52l4.186,4.186H4.186Zm29.319,0h5.412l-7.939,7.939-2.706-2.706ZM46.258,29.3H7.325a5.239,5.239,0,0,1-5.233-5.233,1.048,1.048,0,0,1,1.047-1.047H17.985l3.88,3.88a1.046,1.046,0,0,0,1.48,0l3.446-3.446,3.446,3.446a1.046,1.046,0,0,0,1.48,0l3.88-3.88H50.444a1.048,1.048,0,0,1,1.047,1.047A5.239,5.239,0,0,1,46.258,29.3Zm0,0" transform="translate(0.001 -0.001)" fill="#3ccfbb"/><path d="M72.093,40.047a1.047,1.047,0,1,0-1.047,1.047A1.047,1.047,0,0,0,72.093,40.047Zm0,0" transform="translate(-62.674 -34.918)" fill="#3ccfbb"/></svg>