<svg xmlns="http://www.w3.org/2000/svg" xmlns:xlink="http://www.w3.org/1999/xlink" width="48" height="39.012" viewBox="0 0 48 39.012"><defs><clipPath id="a"><path d="M110.95,82.9a17.94,17.94,0,1,1,17.94-17.94A17.94,17.94,0,0,1,110.95,82.9Z" transform="translate(-93.01 -47.02)" clip-rule="evenodd"/></clipPath></defs><g transform="translate(0 -0.006)"><g transform="translate(0 0.006)"><path d="M110.95,82.9a17.94,17.94,0,1,1,17.94-17.94A17.94,17.94,0,0,1,110.95,82.9Z" transform="translate(-87.801 -44.387)" fill="#3db6a4" fill-rule="evenodd"/><g transform="translate(5.209 2.633)" clip-path="url(#a)"><g transform="translate(22.505 14.346)"><path d="M531.471,303.7c.017,1.418-.568,3.032-.367,4.43a32.033,32.033,0,0,0,.768,4.312l3.59,5.395a6.007,6.007,0,0,1,.484,2.56c6.344-4.076,9.75-7.9-.234-12.384-1.736-.729-1.6-.394-2.471-2.008-.434-.768-1.052-2.185-1.519-2.835l-.25.531Z" transform="translate(-529.033 -303.17)" fill="#fceb08" fill-rule="evenodd"/><path d="M494.841,475.474c.818,8.348,7.046,2.6,8.047,1.181l-.367-.433-.1.65a7.064,7.064,0,0,0-1.152-2.717l-3.589-5.395c-.284.276-2.488,5.848-2.838,6.714Z" transform="translate(-494.84 -459.486)" fill="#5b5b5b" fill-rule="evenodd"/></g></g><path d="M110.95,82.9a17.94,17.94,0,1,1,17.94-17.94A17.94,17.94,0,0,1,110.95,82.9Z" transform="translate(-87.801 -44.387)" fill="none" fill-rule="evenodd"/><g transform="translate(5.209 2.633)" clip-path="url(#a)"><g transform="translate(38.946 14.346)"><path d="M825.021,303.7c.017,1.418-.568,3.032-.367,4.43a32.013,32.013,0,0,0,.768,4.312l3.589,5.395a6,6,0,0,1,.484,2.56c6.344-4.076,9.75-7.9-.234-12.384-1.736-.729-1.6-.394-2.471-2.008-.434-.768-1.052-2.185-1.52-2.835l-.25.531Z" transform="translate(-822.583 -303.17)" fill="#fceb08" fill-rule="evenodd"/><path d="M788.391,475.474c.818,8.348,7.046,2.6,8.047,1.181l-.367-.433-.1.65a7.065,7.065,0,0,0-1.152-2.717l-3.589-5.395c-.284.276-2.488,5.848-2.838,6.714Z" transform="translate(-788.39 -459.486)" fill="#5b5b5b" fill-rule="evenodd"/></g></g><path d="M110.95,82.9a17.94,17.94,0,1,1,17.94-17.94A17.94,17.94,0,0,1,110.95,82.9Z" transform="translate(-87.801 -44.387)" fill="none" stroke="#5b5b5b" stroke-miterlimit="22.926" stroke-width="1" stroke-dasharray="3 3" fill-rule="evenodd"/><path d="M276.951,216.995c.017-.748.184-.532,1.186-1.339.517-.394.868-.945,1.719-.847C280.675,216.424,278.387,217.822,276.951,216.995Zm3.523-16.086c.234.335,0,.039.25.177.134-.2.551-.551.735-.768.234-.276.417-.512.635-.787l-1.719.059.1,1.319Zm-6.178-.02c.267-.2.484-.453.818-.748a2.857,2.857,0,0,0,.718-.886l-1.7.02Zm3.256,11.912a1.267,1.267,0,0,1-1.319.551c-.468-.177-.551-.925-.267-1.437C276.717,210.537,278.27,211.442,277.552,212.8Zm-4.007-.413c-.351-1.457,1.319-1.378,1.62-.177C275.515,213.57,273.846,213.648,273.545,212.388Zm4.708-18.428c-.684.453-1.519,1.162-2.187,1.673a5.124,5.124,0,0,1-.684.729l-.284,1.457c2.187,0,1.336-.1,2.855,1.063.868.65,1.519-.236,1.97-.591.935-.768,3.756-.551,4.291-.335.985.374.083,1.024.017,1.457-.167.945.317,3.131-1.9,3.446a2.928,2.928,0,0,1-2.672-.847c-.9-.906-.668-2.382-1.135-2.5-.317.256-.167.985-.267,1.339-.584,1.024-2.922,2.441-4.241,3.878-5.276,5.749-2.4,14.944,7.146,13.309,2.2-2.264,2.221-8.466,2.571-11.813a7.64,7.64,0,0,1,.318-2.6,38.023,38.023,0,0,1,2.421-3.859l.017-.178-.451-3.327-.517-.3-1.269-1.083c-.217-.157-.451-.355-.684-.531l-.7-.473v-.059a21.054,21.054,0,0,0-2,2.008,14.593,14.593,0,0,1-2.037,2.087c-.05-.689-.134-1.4-.217-2.106q-.05-.5-.1-1c-.05-.551-.034-.63-.25-.847Z" transform="translate(-256.199 -182.965)" fill="#fcfdfe" fill-rule="evenodd"/><path d="M107.624,10.036a35.7,35.7,0,0,0,4.842,1.024c.234-.177.067.02.2-.3-.384-.394-2.538-7.56-2.972-8.88a5.742,5.742,0,0,0-.384-1.063c-.2-.433-1.4-1.28-1.569-.492,0,3.17-.284,6.556-.117,9.707Z" transform="translate(-101.547 -0.006)" fill="#56a7b3" fill-rule="evenodd"/><path d="M162.037,201.673l-.167.1c.351.236,6.895,1.1,7.563,1.22,0,.748-.134,1.319.217,1.811-.05-.551.034-1.594-.067-2.028-.134-.571-1.67-1.477,1.152-1.634.684-.039,1.285.02,1.954,0l-.952-.1.25-1.359-3.54-.709-.3-.1-4.241-1.536-.1.157c-.484.787-1.285,3.918-1.77,4.174Z" transform="translate(-152.804 -186.288)" fill="#56a7b3" fill-rule="evenodd"/><path d="M675.191,39.174V40.63h.067l5.276-.394-.017-.1-.835-8.368-.985.394c-.651.2-.6.079-.835.591-.6,1.457-2.037,5.414-2.672,6.418Z" transform="translate(-637.375 -29.991)" fill="#56a7b3" fill-rule="evenodd"/><path d="M1.82,58.746a8.478,8.478,0,0,0,1.586-1.24c.267-.217.518-.433.785-.65.334-.276.484-.512.868-.551v-.118c-.3-.63-.568-1.1-.885-1.752C3.84,53.765,1.5,49.453,1.452,49.02H0c.718,3.15,1.236,6.517,1.82,9.726Zm18.048.2c.668-.512,1.5-1.221,2.187-1.673a5.465,5.465,0,0,0-2.905-5.257C15.994,54.316,18.432,56.935,19.868,58.943Zm9.968.63.434,3.5c-.1.051-1.122,1.532-1.135,1.555-.584.945-1.2,2.166-1.285,2.3-1.035,1.89.234,11.144-2.888,14.412A6.1,6.1,0,0,0,27.8,79.242c.351-.866,2.471-6.439,2.755-6.714a31.932,31.932,0,0,1-.768-4.312,28.079,28.079,0,0,1,.618-4.962l-.134-.177c1.236-.079,11.22-1.89,11.3-1.969a33.351,33.351,0,0,0-8.6-1.949,12.528,12.528,0,0,1-3.139.413Z" transform="translate(0 -46.275)" fill="#ae4984" fill-rule="evenodd"/><path d="M676.381,183.344l.534.61c.735.827,2.955,3.15,3.155,3.583l3.055-.906a20.485,20.485,0,0,0,2.153-.748,20.553,20.553,0,0,1-1.836-1.437,17.211,17.211,0,0,1-1.787-1.5l-5.276.394Z" transform="translate(-638.498 -172.704)" fill="#82c9be" fill-rule="evenodd"/><path d="M32.49,89.6a4.094,4.094,0,0,0,1.536,1.477l2.221.571.635.2,2.855.768.167-.1a4.116,4.116,0,0,1-.568-.689c-.2-.276-.3-.374-.534-.669-.351-.453-.635-.847-1-1.319l-2.07-2.678c-.651.059-2.421,2.106-3.239,2.441ZM55.2,95.246c-.25-.138-.017.157-.25-.177l-.1-1.319,1.719-.059c-.217.276-.4.512-.635.787-.184.217-.6.571-.735.768Zm-.017-2.56c-2.672.768-.768,4.843,1.954,3.7.835-.335,1.352-1.654,1.2-2.934-.083-.768-.534-.787-1.236-.847A4.8,4.8,0,0,0,55.179,92.686Zm-6.578.748,1.7-.02a2.849,2.849,0,0,1-.718.886c-.334.3-.551.551-.818.748Zm3.523,1.595c1.085-2.934-4.04-3.741-4.291-1.221C47.466,97.589,51.423,96.978,52.124,95.029Zm11.52-5.021.083.059a22.25,22.25,0,0,1,2.4-1.162,21,21,0,0,0,2.354-1.142c0-2.048-.484-4.056-.484-5.946a6.918,6.918,0,0,0-1.5.433c-.885.394-2.771,7.482-2.855,7.757ZM42.274,84l-.5,3.82v.355l4.241,1.536.167-.118-2.337-6.812a5.247,5.247,0,0,1-.317-1.083h-.968a22.247,22.247,0,0,0-.284,2.3Z" transform="translate(-30.67 -77.125)" fill="#fceb08" fill-rule="evenodd"/><path d="M482.481,112.3l8.5,1.89A49.907,49.907,0,0,0,487.29,110c-1.1,0-4.908,2.264-4.808,2.3Zm-6.411-2.028c.935.65,1.77,1.339,2.655,2.087.5-2.087,4.341-2.914.785-7.108C477.072,106.057,476.471,110.133,476.07,110.271Z" transform="translate(-449.407 -99.356)" fill="#d9ead8" fill-rule="evenodd"/><path d="M94.5,55.665c.484-.256,1.286-3.386,1.77-4.174l.1-.157v-.256a.467.467,0,0,1-.184.256,35.631,35.631,0,0,1-4.842-1.024,6.645,6.645,0,0,0-1.018-.118v.118A59.737,59.737,0,0,0,94.5,55.665Zm33.909-5.237.017.1a17.22,17.22,0,0,0,1.787,1.5,20.555,20.555,0,0,0,1.836,1.437c.4-.374-.05-.02.384-.591l.05-.059c.017-.02.05-.059.05-.079.551-.729.684-8.132.735-10.061l-1.152.433c-.868.532-1.353,6.123-3.707,7.324Zm-21.687,7.757c-.7,1.949-4.658,2.56-4.291-1.221C102.685,54.444,107.811,55.252,106.725,58.186Zm3.055-2.343a4.808,4.808,0,0,1,1.92-.079c.7.059,1.152.079,1.236.847.15,1.28-.367,2.6-1.2,2.934C109.013,60.686,107.109,56.611,109.781,55.843Zm-4.624-.709c-.668.02-1.269-.039-1.954,0-2.822.157-1.286,1.063-1.152,1.634.1.433.017,1.476.067,2.028.267.63.334.827.952,1.122a3.472,3.472,0,0,0,1.937.236,3,3,0,0,0,2.321-1.988c.1-.374.034-.925.25-1.181.434.2.184.63.434,1.26a2.526,2.526,0,0,0,.718,1.083,2.928,2.928,0,0,0,2.672.847c2.221-.315,1.736-2.5,1.9-3.446.067-.433.968-1.083-.017-1.457-.534-.217-3.356-.433-4.291.335-.451.355-1.1,1.241-1.97.591-.668-.512-.3-1-1.87-1.063Z" transform="translate(-85.271 -40.281)" fill="#5b5b5b" fill-rule="evenodd"/><path d="M393.79,191.615c.217.217.2.3.25.847q.05.5.1,1c.083.708.167,1.418.217,2.106a14.59,14.59,0,0,0,2.037-2.087,21.119,21.119,0,0,1,2-2.008C398.048,191.281,393.79,191.261,393.79,191.615Z" transform="translate(-371.735 -180.622)" fill="#f5b2b6" fill-rule="evenodd"/><path d="M370.54,570.58c1.435.827,3.723-.571,2.905-2.185-.851-.1-1.2.453-1.719.847C370.724,570.049,370.557,569.832,370.54,570.58Z" transform="translate(-349.787 -536.55)" fill="#5b5b5b" fill-rule="evenodd"/><path d="M351.778,506.227c.718-1.359-.835-2.264-1.586-.886-.284.512-.2,1.26.267,1.437A1.268,1.268,0,0,0,351.778,506.227Z" transform="translate(-330.424 -476.391)" fill="#5b5b5b" fill-rule="evenodd"/><path d="M308.919,507.056c.3,1.26,1.97,1.181,1.62-.177C310.238,505.678,308.568,505.6,308.919,507.056Z" transform="translate(-291.572 -477.633)" fill="#5b5b5b" fill-rule="evenodd"/><path d="M273.95,222.788l.3.1-.133-.217Z" transform="translate(-258.607 -210.199)" fill="#c3d461" fill-rule="evenodd"/></g></g></svg>