<svg xmlns="http://www.w3.org/2000/svg" width="59.181" height="36.849" viewBox="0 0 59.181 36.849"><g transform="translate(0)"><g transform="translate(0)"><path d="M5.862,0H53.319a5.862,5.862,0,0,1,5.862,5.862V30.987a5.862,5.862,0,0,1-5.862,5.862H5.862A5.862,5.862,0,0,1,0,30.987V5.862A5.862,5.862,0,0,1,5.862,0Z" transform="translate(0)" fill="#fbea0a"/><g transform="translate(0 13.958)"><path d="M0,1283.36H59.181v8.933H0Z" transform="translate(0 -1283.36)" fill="#5fbeb4"/></g><g transform="translate(6.627 16.724)"><path d="M866.492,1541.071a1.978,1.978,0,0,1-.929-.216,1.615,1.615,0,0,1-.648-.6,1.768,1.768,0,0,1,0-1.761,1.613,1.613,0,0,1,.648-.6,1.976,1.976,0,0,1,.929-.216,2.033,2.033,0,0,1,.845.167,1.568,1.568,0,0,1,.613.483l-.692.618a.888.888,0,0,0-.711-.381.726.726,0,0,0-.553.221.943.943,0,0,0,0,1.185.727.727,0,0,0,.553.22.887.887,0,0,0,.711-.381l.692.618a1.568,1.568,0,0,1-.613.483,2.037,2.037,0,0,1-.845.167Zm3.549,0h0a2,2,0,0,1-.943-.219,1.667,1.667,0,0,1,0-2.964,2.146,2.146,0,0,1,1.886,0,1.667,1.667,0,0,1,0,2.964A2,2,0,0,1,870.041,1541.071Zm0-.887h0a.7.7,0,0,0,.369-.1.718.718,0,0,0,.263-.283,1,1,0,0,0,0-.859.714.714,0,0,0-.263-.283.733.733,0,0,0-.739,0,.716.716,0,0,0-.262.283,1,1,0,0,0,0,.859.716.716,0,0,0,.262.283A.7.7,0,0,0,870.041,1540.184Zm3.47-1.612h0v.558h1.356v.827h-1.356V1541h-1.1v-3.252h2.644v.827h-1.547Zm3.131,0h0v.558H878v.827h-1.356V1541h-1.1v-3.252h2.644v.827h-1.547Zm4.739,1.6h0V1541h-2.7v-3.252h2.644v.827h-1.566v.381h1.375v.79h-1.375v.427h1.626Zm3.266,0h0V1541h-2.7v-3.252h2.644v.827h-1.566v.381H884.4v.79h-1.375v.427h1.626Zm5,.827h0l-.009-1.482-.706,1.189h-.483l-.706-1.138V1541h-1v-3.252h.9l1.059,1.733,1.031-1.733h.9l.009,3.252Zm3.373.074h0a2,2,0,0,1-.943-.219,1.667,1.667,0,0,1,0-2.964,2.146,2.146,0,0,1,1.886,0,1.667,1.667,0,0,1,0,2.964A2,2,0,0,1,893.019,1541.071Zm0-.887h0a.7.7,0,0,0,.369-.1.716.716,0,0,0,.262-.283.994.994,0,0,0,0-.859.712.712,0,0,0-.262-.283.733.733,0,0,0-.739,0,.716.716,0,0,0-.262.283,1,1,0,0,0,0,.859.716.716,0,0,0,.262.283A.7.7,0,0,0,893.019,1540.184Zm4.079.887h0a2,2,0,0,1-.943-.219,1.667,1.667,0,0,1,0-2.964,2.146,2.146,0,0,1,1.886,0,1.667,1.667,0,0,1,0,2.964A2,2,0,0,1,897.1,1541.071Zm0-.887h0a.7.7,0,0,0,.369-.1.717.717,0,0,0,.262-.283,1,1,0,0,0,0-.859.714.714,0,0,0-.262-.283.733.733,0,0,0-.739,0,.714.714,0,0,0-.263.283,1,1,0,0,0,0,.859.716.716,0,0,0,.263.283A.7.7,0,0,0,897.1,1540.184Zm3.587.887h0a3.4,3.4,0,0,1-.787-.091,2.112,2.112,0,0,1-.63-.244l.353-.8a2.261,2.261,0,0,0,.52.216,2.025,2.025,0,0,0,.553.082.858.858,0,0,0,.325-.044.142.142,0,0,0,.1-.133c0-.068-.043-.119-.128-.153a2.773,2.773,0,0,0-.42-.111,4.751,4.751,0,0,1-.627-.17,1.068,1.068,0,0,1-.437-.3.806.806,0,0,1-.186-.56.965.965,0,0,1,.172-.558,1.138,1.138,0,0,1,.513-.4,2.135,2.135,0,0,1,.829-.144,3,3,0,0,1,.657.072,2.053,2.053,0,0,1,.569.211l-.33.794a2.018,2.018,0,0,0-.906-.241q-.423,0-.423.2,0,.1.125.146a2.661,2.661,0,0,0,.414.1,4.286,4.286,0,0,1,.627.16,1.091,1.091,0,0,1,.444.3.791.791,0,0,1,.188.557.955.955,0,0,1-.172.555,1.159,1.159,0,0,1-.513.395,2.1,2.1,0,0,1-.829.146Zm4.683-.9h0V1541h-2.7v-3.252h2.643v.827h-1.566v.381h1.375v.79h-1.375v.427h1.626Z" transform="translate(-861.902 -1537.67)" fill="#fefefe"/><path d="M610.072,1624.54a.782.782,0,1,1-.782.782A.782.782,0,0,1,610.072,1624.54Z" transform="translate(-609.29 -1623.595)" fill="#fefefe" fill-rule="evenodd"/><path d="M4689.132,1624.54a.782.782,0,1,1-.782.782A.782.782,0,0,1,4689.132,1624.54Z" transform="translate(-4643.986 -1623.595)" fill="#fefefe" fill-rule="evenodd"/></g></g></g></svg>