<svg xmlns="http://www.w3.org/2000/svg" width="31.28" height="36.909" viewBox="0 0 31.28 36.909"><g transform="translate(0 0.04)"><g transform="translate(0 -0.04)"><path d="M238.8,26.2h27.166V62.1H238.8Z" transform="translate(-235.19 -25.803)" fill="#fbea0a"/><path d="M30.776-.04H6.979a.5.5,0,0,0,0,1.009H30.271V35.86H4.114V.97H7.548a.5.5,0,0,0,0-1.009H3.61a.5.5,0,0,0-.5.5V4.8H1.658A1.66,1.66,0,0,0,0,6.454v.8A1.659,1.659,0,0,0,1.658,8.911H3.105V12.5H1.658A1.66,1.66,0,0,0,0,14.161v.8a1.66,1.66,0,0,0,1.658,1.658H3.105v3.594H1.658A1.66,1.66,0,0,0,0,21.87v.8a1.659,1.659,0,0,0,1.658,1.658H3.105V27.92H1.658A1.66,1.66,0,0,0,0,29.578v.8a1.66,1.66,0,0,0,1.658,1.658H3.105v4.33a.5.5,0,0,0,.5.5H30.776a.5.5,0,0,0,.5-.5V.464a.5.5,0,0,0-.5-.5ZM1.658,7.9h0a.649.649,0,0,1-.649-.649v-.8a.65.65,0,0,1,.649-.649H3.105V7.9H1.658Zm0,7.708h0a.649.649,0,0,1-.649-.649v-.8a.65.65,0,0,1,.649-.65H3.105v2.1H1.658Zm0,7.707h0a.649.649,0,0,1-.649-.649v-.8a.65.65,0,0,1,.649-.649H3.105v2.1H1.658Zm0,7.708h0a.649.649,0,0,1-.649-.649v-.8a.649.649,0,0,1,.649-.649H3.105v2.1H1.658Z" transform="translate(0 0.04)" fill="#4d4d4c"/><g transform="translate(8.346 12.206)"><path d="M679.793,966.55a7.023,7.023,0,0,1,7.023,7.024v.7H672.77v-.7a7.023,7.023,0,0,1,7.023-7.024Z" transform="translate(-670.946 -964.145)" fill="#5fbeb4"/><path d="M1019.159,835.383a7.043,7.043,0,0,1,1.765.224,1.814,1.814,0,1,0-3.529,0A7.043,7.043,0,0,1,1019.159,835.383Z" transform="translate(-1010.312 -832.978)" fill="#5fbeb4"/><path d="M553.536,816.869v.3h-1.027a.4.4,0,0,0-.4.4v1.75a.4.4,0,0,0,.4.4h14.1a.4.4,0,1,0,0-.8h-13.7v-.954h16.1v.954h-2.388a.4.4,0,0,0,0,.8h2.787a.4.4,0,0,0,.4-.4v-1.75a.4.4,0,0,0-.4-.4h-1.027v-.3a7.435,7.435,0,0,0-5.216-7.088c0-.043.008-.086.008-.128a2.213,2.213,0,0,0-4.426,0c0,.042.005.085.008.128a7.435,7.435,0,0,0-5.216,7.088Zm7.421-8.632h0a1.416,1.416,0,0,1,1.412,1.346,7.382,7.382,0,0,0-2.825,0A1.416,1.416,0,0,1,560.957,808.237Zm0,2.006h0a6.632,6.632,0,0,1,6.624,6.625v.3H554.333v-.3a6.632,6.632,0,0,1,6.625-6.626Z" transform="translate(-552.11 -807.44)" fill="#4d4d4c"/></g></g></g></svg>